<?xml version="1.0" encoding="UTF-8" standalone="no"?>
<svg
   version="1.1"
   width="76.188301"
   height="26.000002"
   id="svg16"
   sodipodi:docname="Robotique_UdeS_symbol.svg"
   inkscape:version="1.4.4 (dcaf3e7, 2026-05-05)"
   xmlns:inkscape="http://www.inkscape.org/namespaces/inkscape"
   xmlns:sodipodi="http://sodipodi.sourceforge.net/DTD/sodipodi-0.dtd"
   xmlns="http://www.w3.org/2000/svg"
   xmlns:svg="http://www.w3.org/2000/svg">
  <defs
     id="defs16" />
  <sodipodi:namedview
     id="namedview16"
     pagecolor="#ffffff"
     bordercolor="#000000"
     borderopacity="0.25"
     inkscape:showpageshadow="2"
     inkscape:pageopacity="0.0"
     inkscape:pagecheckerboard="0"
     inkscape:deskcolor="#d1d1d1"
     inkscape:zoom="0.32034083"
     inkscape:cx="1222.1358"
     inkscape:cy="279.38993"
     inkscape:window-width="1920"
     inkscape:window-height="991"
     inkscape:window-x="-9"
     inkscape:window-y="-9"
     inkscape:window-maximized="1"
     inkscape:current-layer="svg16" />
  <g
     id="g16"
     transform="matrix(0.02885172,0,0,0.02885172,-2.1441208,-1.360444)">
    <path
       d="M 0,0 C 0.58652344,0.4434375 1.1730469,0.886875 1.7773437,1.34375 17.95166,13.826517 28.531405,35.331012 32.4375,55 35.251497,77.324378 31.541886,98.628477 18,117 c -1.687923,1.95163 -3.38622,3.85563 -5.145447,5.73991 -0.516631,0.55597 -1.033263,1.11194 -1.565549,1.68475 -7.4454639,7.94924 -15.1900925,15.60758 -22.899356,23.29922 -1.745805,1.74552 -3.491389,3.49126 -5.23677,5.23721 -3.732288,3.73251 -7.466084,7.46351 -11.201317,11.19308 -5.400272,5.39209 -10.797725,10.78699 -16.194531,16.18254 -8.759661,8.75748 -17.521545,17.51274 -26.284862,26.26656 -8.504113,8.49491 -17.007157,16.99089 -25.508789,25.48828 -0.788318,0.78793 -0.788318,0.78793 -1.592562,1.59177 -2.636947,2.63564 -5.273877,5.27131 -7.910797,7.90699 C -127.35677,263.39676 -149.17722,285.19954 -171,307 c 1.29131,2.83774 2.64571,4.89555 4.84747,7.09636 0.58426,0.58885 1.16852,1.17771 1.77048,1.78441 0.6424,0.63726 1.28479,1.27451 1.94666,1.93107 0.6821,0.68452 1.3642,1.36903 2.06697,2.07429 2.29206,2.29771 4.59121,4.58818 6.89039,6.87876 1.64289,1.64396 3.28535,3.28836 4.9274,4.93315 4.46677,4.47163 8.93979,8.93697 13.41405,13.4011 4.207,4.19911 8.40968,8.40252 12.61252,12.60579 8.3335,8.334 16.67182,16.66316 25.01283,24.98965 8.083695,8.06963 16.163901,16.14273 24.240234,24.21973 0.496766,0.4968 0.993533,0.99361 1.505353,1.50547 0.495926,0.49597 0.991852,0.99193 1.502806,1.50293 9.668672,9.6694 19.341203,19.33493 29.014824,28.99938 2.783987,2.78186 5.567266,5.56442 8.350388,8.34715 4.382283,4.38127 8.767118,8.75998 13.153908,13.13674 1.606833,1.60392 3.212833,3.20868 4.81792,4.81435 2.197458,2.19795 4.397983,4.39278 6.5992894,6.58688 0.6290124,0.63056 1.2580247,1.26112 1.906098,1.91079 3.7605149,3.7403 7.6402551,7.28515 11.6689642,10.73545 C 18.338513,496.01207 26.497935,512.39154 31,529 c 0.367383,1.32645 0.367383,1.32645 0.742187,2.67969 4.571115,20.10038 0.952837,41.97735 -9.735769,59.47313 -4.201312,6.4901 -9.400352,11.80242 -14.8591096,17.21454 -1.0948156,1.10015 -2.1887614,2.20116 -3.2819199,3.30296 -2.98299512,3.00151 -5.9782008,5.99056 -8.9757155,8.97756 -3.2397918,3.23277 -6.46802,6.47705 -9.697809,9.71981 -6.320199,6.34179 -12.651182,12.67271 -18.986259,18.99963 -5.151358,5.14505 -10.298968,10.29382 -15.443959,15.44524 -0.733544,0.73444 -1.467088,1.46889 -2.222861,2.22559 -1.490402,1.49225 -2.980799,2.98451 -4.47119,4.47678 -13.962667,13.97923 -27.937933,27.9458 -41.917309,41.90832 -12.774326,12.75963 -25.533936,25.53386 -38.286486,38.31526 -13.11129,13.14071 -26.2318,26.27215 -39.36258,39.39339 -1.48667,1.48565 -2.97333,2.97131 -4.45997,4.45699 -0.73136,0.73088 -1.46272,1.46177 -2.21624,2.2148 -5.13891,5.13675 -10.27183,10.27945 -15.40236,15.42457 -6.25865,6.27621 -12.52611,12.54346 -18.80489,18.79954 -3.19979,3.18869 -6.39554,6.38116 -9.58044,9.58474 -2.92196,2.93888 -5.85545,5.86575 -8.79811,8.78389 -1.05617,1.05133 -2.10825,2.10678 -3.1555,3.16699 -15.8094,15.99064 -34.25019,24.49792 -56.83371,24.74908 -24.83871,-0.1129 -47.68572,-9.87374 -65.32031,-27.28906 C -372.72942,838.10214 -381.27494,823.43111 -386,806 c -0.36738,-1.32645 -0.36738,-1.32645 -0.74219,-2.67969 -4.58674,-20.16912 -0.95952,-42.17171 9.91063,-59.6501 3.45612,-5.34346 7.36225,-9.75524 11.88648,-14.20614 0.78185,-0.78528 1.56371,-1.57055 2.36926,-2.37962 2.59458,-2.60112 5.2031,-5.18778 7.8119,-7.77464 1.8738,-1.87266 3.74678,-3.74611 5.61879,-5.62056 4.01765,-4.01973 8.0425,-8.03213 12.07247,-12.03951 5.82648,-5.79384 11.64177,-11.59883 17.45446,-17.40651 9.43319,-9.42446 18.87527,-18.83997 28.32303,-28.24982 9.17236,-9.13559 18.34046,-18.2754 27.50293,-27.4209 0.84854,-0.84696 0.84854,-0.84696 1.71422,-1.71103 2.83814,-2.83293 5.67621,-5.66594 8.51423,-8.49899 C -230.05535,594.89545 -206.53245,571.44296 -183,548 c -4.09629,-4.88012 -8.34376,-9.48721 -12.8558,-13.98279 -0.66511,-0.66666 -1.33021,-1.33332 -2.01546,-2.02018 -2.21292,-2.21688 -4.42936,-4.4302 -6.64583,-6.64351 -1.594,-1.59536 -3.18779,-3.19093 -4.78139,-4.7867 -4.31795,-4.32251 -8.63906,-8.64185 -12.96087,-12.9605 -4.52879,-4.52625 -9.05513,-9.05495 -13.58187,-13.58325 -8.08919,-8.09113 -16.18091,-16.17974 -24.27362,-24.26736 -7.32576,-7.3213 -14.6489,-14.64521 -21.97012,-21.97104 -8.51605,-8.52141 -17.03378,-17.04112 -25.55398,-25.55837 -4.50493,-4.50337 -9.00918,-9.00741 -13.51168,-13.51321 -4.23468,-4.23759 -8.47183,-8.4727 -12.71084,-12.70595 -1.55202,-1.55071 -3.1032,-3.10225 -4.65345,-4.65472 -2.1228,-2.12554 -4.24867,-4.24795 -6.37532,-6.36963 -0.60683,-0.60906 -1.21366,-1.21812 -1.83887,-1.84564 -3.68305,-3.66648 -7.48804,-7.13991 -11.42906,-10.5279 C -373.89108,358.86315 -385.41721,341.00497 -388,320 c -1.55312,-26.59483 5.34821,-49.94975 22.74219,-70.46875 4.32312,-4.84668 8.84286,-9.31966 13.77365,-13.54243 5.03453,-4.40266 9.73289,-9.11465 14.44554,-13.85686 0.98467,-0.9871 1.96957,-1.97398 2.95468,-2.96064 2.12892,-2.13327 4.25622,-4.26814 6.38227,-6.40427 3.46042,-3.47684 6.92437,-6.95015 10.38871,-10.42307 5.02952,-5.04261 10.05741,-10.08684 15.08441,-15.13196 7.9512,-7.97948 15.90823,-15.95313 23.86629,-23.92577 2.72619,-2.73131 5.45236,-5.46265 8.17852,-8.19399 0.6812,-0.68248 1.3624,-1.36496 2.06423,-2.06812 7.74433,-7.75905 15.48777,-15.51897 23.23059,-23.27951 0.70735,-0.70896 1.4147,-1.41793 2.14348,-2.14837 11.46473,-11.49127 22.92384,-22.98814 34.38134,-34.486632 11.77784,-11.819625 23.56338,-23.631553 35.35561,-35.436825 7.26553,-7.274105 14.52479,-14.554346 21.77605,-21.842673 4.9714,-4.995737 9.95013,-9.984099 14.93461,-14.966793 2.87231,-2.871735 5.7413,-5.74659 8.60151,-8.630383 2.62355,-2.6450461 5.25636,-5.2805078 7.89653,-7.9089685 1.39399,-1.3925357 2.77815,-2.7948857 4.16182,-4.19767658 C -83.270187,-31.961521 -33.330656,-28.972504 0,0 Z"
       fill="#0f6735"
       transform="translate(463,70)"
       id="path1" />
    <path
       d="M 0,0 C 0.58652344,0.4434375 1.1730469,0.886875 1.7773437,1.34375 17.95166,13.826517 28.531405,35.331012 32.4375,55 35.251534,77.324673 31.541604,98.628069 18,117 c -1.685995,1.94975 -3.382358,3.85181 -5.139709,5.73418 -0.516487,0.55582 -1.032974,1.11164 -1.565112,1.6843 -7.477092,7.98284 -15.255459,15.67292 -22.997327,23.39719 -1.755658,1.75538 -3.511094,3.51097 -5.266327,5.26677 -3.75357,3.7538 -7.508646,7.50608 -11.26516,11.25693 -5.431041,5.42285 -10.859263,10.84852 -16.286838,16.27485 -8.809576,8.80739 -17.621374,17.61256 -26.434605,26.4163 -8.552616,8.54341 -17.104163,17.08789 -25.654297,25.63379 -0.528533,0.52827 -1.057065,1.05654 -1.601614,1.60081 -2.651931,2.65063 -5.303851,5.30128 -7.955751,7.95194 C -128.10794,264.14793 -150.05281,286.07513 -172,308 c -1.09964,-0.93251 -2.19782,-1.86675 -3.29541,-2.80167 -0.61172,-0.52006 -1.22343,-1.04012 -1.85367,-1.57594 -2.97885,-2.61106 -5.74998,-5.41534 -8.52963,-8.23518 -0.62709,-0.63176 -1.25418,-1.26353 -1.90027,-1.91443 -1.35036,-1.36079 -2.69961,-2.72268 -4.04784,-4.08557 -2.14274,-2.16495 -4.28959,-4.32575 -6.43769,-6.48539 -6.1036,-6.137 -12.20306,-12.27805 -18.29194,-18.42965 -3.73625,-3.77415 -7.47999,-7.54075 -11.22846,-11.30277 -1.4172,-1.42519 -2.83163,-2.85314 -4.24309,-4.28402 -18.0373,-18.28117 -36.51651,-31.13556 -63.1095,-31.38538 -18.19355,0.21661 -38.07914,5.19464 -52.0625,17.5 -0.66,-0.33 -1.32,-0.66 -2,-1 30.50297,-30.59457 61.01651,-61.17857 91.54421,-91.74847 3.60603,-3.61103 7.21197,-7.22215 10.81785,-10.83332 0.71785,-0.7189 1.43571,-1.4378 2.17531,-2.17849 11.61528,-11.63267 23.22348,-23.2724 34.82905,-34.914754 11.91313,-11.950562 23.83386,-23.893491 35.76166,-35.829404 7.35679,-7.362263 14.7076,-14.730378 22.05084,-22.106148 5.03963,-5.060816 10.08666,-10.114182 15.13948,-15.161824 2.91274,-2.910184 5.82218,-5.823473 8.72287,-8.745677 2.66088,-2.6804811 5.33102,-5.3513855 8.0085,-8.0152809 1.41424,-1.4117694 2.81867,-2.8333374 4.22261,-4.25534228 C -83.312583,-31.904044 -33.408675,-29.040321 0,0 Z"
       fill="#239c48"
       transform="translate(463,70)"
       id="path2" />
    <path
       d="m 0,0 c 11.232978,9.3962624 21.439327,19.878193 31.765477,30.243626 2.88298,2.891703 5.771827,5.777535 8.659928,8.664122 4.989873,4.988831 9.976104,9.981279 14.959802,14.976279 7.20539,7.221718 14.416367,14.437836 21.628672,21.652647 11.704385,11.708751 23.404311,23.421951 35.101391,35.137996 11.35539,11.37378 22.7129,22.74543 34.07324,34.11426 0.70152,0.70204 1.40303,1.40408 2.12581,2.12739 3.51968,3.5223 7.03941,7.04456 10.55916,10.5668 29.1501,29.17079 58.29294,58.34882 87.431,87.53164 -3.89628,0 -5.18023,-1.35299 -8.375,-3.5625 -18.30565,-12.00499 -42.90598,-15.58276 -64.25,-11.75391 -23.56464,5.91571 -39.36845,23.14539 -55.91406,39.75781 -1.37555,1.37742 -2.75131,2.7546 -4.12729,4.13158 -3.58928,3.59306 -7.17554,7.18912 -10.76114,10.78584 -3.672065,3.68237 -7.347026,7.36184 -11.02173,11.04157 -7.186403,7.19707 -14.369618,14.39731 -21.550781,21.59961 -2.830804,-1.28859 -4.884715,-2.63572 -7.077946,-4.83465 -0.584758,-0.58139 -1.169515,-1.16278 -1.771993,-1.76179 -0.63268,-0.63919 -1.26536,-1.27838 -1.917212,-1.93693 -0.679727,-0.67873 -1.359453,-1.35745 -2.059777,-2.05674 -2.281546,-2.28059 -4.555859,-4.56826 -6.830299,-6.85594 -1.632472,-1.63467 -3.265392,-3.2689 -4.898727,-4.90271 -3.519647,-3.52258 -7.03611,-7.0483 -10.550164,-10.57646 C 29.639267,278.50819 24.07311,272.93393 18.505956,267.36063 10.698141,259.54303 2.8937826,251.722 -4.9079237,243.8983 c -0.4950722,-0.49646 -0.9901443,-0.99293 -1.5002187,-1.50444 -0.4956645,-0.49706 -0.991329,-0.99412 -1.5020136,-1.50624 -7.016135,-7.03587 -14.033218,-14.0708 -21.051479,-21.10455 -0.493254,-0.49435 -0.986508,-0.98869 -1.494709,-1.49802 -8.238499,-8.25655 -16.479054,-16.51105 -24.720647,-24.76451 -5.529958,-5.53835 -11.057093,-11.0795 -16.581961,-16.62293 -3.443744,-3.45442 -6.88954,-6.90678 -10.33584,-10.35864 -1.593974,-1.59744 -3.187076,-3.19574 -4.779225,-4.795 -2.179807,-2.18931 -4.362738,-4.37547 -6.546419,-6.56092 -0.623757,-0.62804 -1.247514,-1.25607 -1.890173,-1.90314 -3.720299,-3.71556 -7.560321,-7.23602 -11.548881,-10.66243 -15.73445,-13.73506 -27.25433,-31.60667 -29.83603,-52.602722 -1.55295,-26.591952 5.34728,-49.934803 22.73047,-70.457031 6.73738,-7.549115 13.44364,-13.5562442 22.269529,-18.5429689 1.122773,-0.64839843 2.245547,-1.29679686 3.402343,-1.96484374 C -61.123528,-16.272927 -26.257664,-19.338676 0,0 Z"
       fill="#3c4741"
       transform="translate(211.69552,299.98524)"
       id="path3" />
    <path
       d="M 0,0 C 23.947045,21.770041 40.198538,49.903725 41.875977,82.984375 42.887075,117.84806 34.093223,149.13744 10.019531,175.09766 9.2705859,175.89043 8.5216406,176.6832 7.75,177.5 7.0526172,178.26184 6.3552344,179.02367 5.6367187,179.80859 -4.6082874,190.61548 -19.11891,200.58735 -33.25,205.5 c -0.99,0 -1.98,0 -3,0 5.792798,7.78963 13.190761,13.52057 23,15 13.9100208,1.24197 30.247104,-6.53925 40.8125,-15.34375 0.721875,-0.54656 1.44375,-1.09312 2.1875,-1.65625 3.878882,1.29296 4.180887,2.60553 6.109375,6.14453 0.590391,1.07057 1.180781,2.14113 1.789062,3.24414 0.611016,1.12987 1.222032,2.25973 1.851563,3.42383 1.202028,2.19461 2.405151,4.38862 3.609375,6.58203 0.591035,1.09006 1.18207,2.18013 1.791016,3.30322 2.434754,4.34695 5.081392,8.55521 7.768554,12.75025 1.081055,2.552 1.081055,2.552 0.434326,4.74536 -2.075721,2.77112 -4.73509,4.65124 -7.540771,6.61914 -0.620764,0.43723 -1.241528,0.87447 -1.881104,1.32495 -22.561204,15.42649 -49.9852305,20.74029 -76.947021,17.46802 C -42.255548,267.35492 -50.312373,262.91354 -58.25,258.5 c -0.832734,-0.44988 -1.665469,-0.89977 -2.523437,-1.36328 C -75.40048,248.35506 -87.23202,232.82816 -94.25,217.5 c 0,-0.66 0,-1.32 0,-2 -1.018359,-0.0258 -2.036719,-0.0516 -3.085937,-0.0781 C -133.72159,214.12177 -165.16876,198.57356 -190.25,172.4375 -212.03793,147.87905 -221.03408,114.8076 -219.12988,82.459473 -216.94629,53.050527 -204.87223,27.358931 -184.25,6.5 c 0.86818,-0.9764648 0.86818,-0.9764648 1.75391,-1.9726563 C -138.51675,-44.045142 -47.170153,-40.43156 0,0 Z M -136.42578,45.734375 C -150.63306,62.176194 -154.61359,81.308635 -153.25,102.5 c 1.8501,17.08623 11.74017,33.0834 24.5625,44.1875 4.27129,3.24191 8.79666,5.76349 13.5625,8.1875 0.65686,0.33411 1.31372,0.66822 1.99048,1.01245 15.222195,7.38582 31.362672,6.45619 47.142333,1.61255 17.053219,-6.41165 29.461954,-19.74916 36.916992,-36.04443 C -21.668781,103.90368 -21.532929,84.324817 -28.003906,66.5 -35.531824,48.376361 -47.495494,35.705153 -65.5625,28.0625 -67.115485,27.513946 -68.67776,26.990647 -70.25,26.5 c -0.665156,-0.223008 -1.330313,-0.446016 -2.015625,-0.675781 -23.390328,-6.561791 -47.785465,3.094494 -64.160155,19.910156 z"
       fill="#000000"
       transform="translate(2178.25,293.5)"
       id="path4" />
    <path
       d="m 0,0 c 20.439375,-0.04125 40.87875,-0.0825 61.9375,-0.125 9.634977,-0.027312 9.634977,-0.027312 19.4646,-0.0551758 7.921264,-0.009033 7.921264,-0.009033 11.644546,-0.0107117 3.236649,-0.003839 6.473187,-0.0152245 9.709804,-0.0284892 16.77426,-0.0581777 33.49107,-0.0998816 49.80605,4.3443767 0.78246,0.2110034 1.56492,0.4220068 2.37109,0.6394043 C 171.33789,9.4710184 187.54628,18.454162 197,33 c 4.88046,8.926754 7.38933,17.607688 7.3125,27.75 -0.006,0.786409 -0.0113,1.572817 -0.0171,2.383057 -0.27169,13.147461 -4.45076,25.375002 -13.48291,35.183349 C 183.73829,104.88749 175.91865,109.41184 167,113 c 1.02738,0.4125 2.05477,0.825 3.11328,1.25 16.19101,6.67426 29.05695,15.59261 36.88672,31.75 6.26968,17.1318 7.95639,36.23088 0.55859,53.33203 -8.63331,17.20654 -23.61592,29.08533 -41.71435,35.42285 -2.27099,0.72952 -4.54925,1.40769 -6.84424,2.05762 -1.02976,0.29234 -1.02976,0.29234 -2.08032,0.59058 -11.51929,3.0283 -23.12572,3.89376 -34.99341,3.82397 -1.36338,-6.1e-4 -2.72676,-3.4e-4 -4.09014,7.3e-4 -3.60427,4.5e-4 -7.20841,-0.011 -10.81265,-0.0252 -3.39984,-0.0115 -6.79965,-0.0119 -10.199505,-0.0134 C 86.924299,241.17877 77.024648,241.15085 67.125,241.125 33.898125,241.06313 33.898125,241.06313 0,241 0,161.47 0,81.94 0,0 Z m 63,50 c 0,15.18 0,30.36 0,46 7.240965,0.04604 14.481417,0.08583 21.722412,0.109863 2.46063,0.01003 4.921247,0.02365 7.381836,0.04102 3.547312,0.0244 7.094465,0.03564 10.641842,0.04443 1.63648,0.01548 1.63648,0.01548 3.30602,0.03128 C 115.91355,96.228025 124.08136,95.190933 132,89 c 4.59474,-4.594739 6.61355,-10.018845 7.4375,-16.375 -0.81402,-6.744707 -2.65395,-12.661212 -8.0625,-17.0625 -8.57779,-5.399107 -17.23743,-5.99154 -27.16406,-5.855469 -1.77666,0.0064 -1.77666,0.0064 -3.58921,0.01286 -3.749147,0.01667 -7.497743,0.0543 -11.24673,0.09261 -2.555982,0.01506 -5.111972,0.02875 -7.667969,0.04102 C 75.470973,49.883866 69.236102,49.942613 63,50 Z m 0,92 c 0,16.5 0,33 0,50 7.186036,0.0461 14.37155,0.0859 21.557617,0.10986 2.440122,0.01 4.880232,0.0236 7.320313,0.041 3.525095,0.0245 7.05003,0.0357 10.5752,0.0444 1.0755,0.0103 2.151,0.0206 3.25909,0.0313 11.80343,0.002 24.28723,-0.8105 33.39325,-9.15628 5.54919,-6.06406 7.39087,-11.07247 7.20312,-19.28906 -0.65133,-5.87027 -3.189,-10.00742 -7.43359,-14.03125 -7.08405,-5.60312 -15.77423,-7.88326 -24.67505,-7.86353 -1.1408,8e-5 -2.28161,1.6e-4 -3.45698,2.3e-4 -1.8315,0.008 -1.8315,0.008 -3.7,0.0156 -1.88715,0.002 -1.88715,0.002 -3.81242,0.004 -3.332335,0.005 -6.664596,0.0136 -9.996907,0.0247 -3.405349,0.0102 -6.810705,0.0148 -10.216065,0.0198 C 76.345013,141.96134 69.672569,141.98092 63,142 Z"
       fill="#000000"
       transform="translate(1122,265)"
       id="path5" />
    <path
       d="M 0,0 C 1.0185205,0.0616333 1.0185205,0.0616333 2.0576172,0.12451172 39.445496,2.5985933 72.908441,16.655989 98,45 c 20.71772,24.830314 29.65897,57.52255 26.77295,89.51709 C 121.59161,163.90098 109.77399,188.93628 89,210 c -0.85207,0.86496 -1.704141,1.72992 -2.582031,2.62109 -26.466827,25.43514 -62.820235,33.91378 -98.484375,33.59766 C -20.907319,246.02574 -29.373212,244.88857 -38,243 c -0.987825,-0.20883 -0.987825,-0.20883 -1.995605,-0.42188 C -69.956163,236.0561 -98.996557,217.25985 -115.875,191.50781 -133.70001,162.52555 -140.81742,129.03182 -133.59082,95.455078 -125.9798,63.828441 -107.83866,37.251915 -80,20 -56.331247,5.6549158 -27.726726,-1.7012482 0,0 Z M -54.25,77.375 C -68.218108,93.900649 -71.263733,112.95829 -70,134 c 2.045514,17.56757 12.218765,32.89054 25.46875,44.08594 8.192198,6.09095 18.321203,11.45808 28.53125,12.91406 1.001602,0.14437 2.003203,0.28875 3.035156,0.4375 C 4.4592895,193.32331 20.181258,188.67708 34,178 c 0.689648,-0.51176 1.379297,-1.02352 2.089844,-1.55078 C 45.761777,168.73082 52.062998,157.56398 56,146 c 0.318398,-0.8727 0.636797,-1.74539 0.964844,-2.64453 5.547985,-17.87116 2.759752,-38.16301 -5.647461,-54.540773 C 42.346765,72.252785 28.402329,61.549767 10.4375,56.1875 -13.989997,50.628577 -37.393557,59.309982 -54.25,77.375 Z"
       fill="#000000"
       transform="translate(962,263)"
       id="path6" />
    <path
       d="M 0,0 C 0.80566406,0.68578125 1.6113281,1.3715625 2.4414063,2.078125 26.565878,23.145602 40.59339,52.114197 42.839844,84.054687 44.797814,120.06223 32.779048,151.47254 8.9570313,178.30078 -13.073425,201.57123 -46.105656,214.7095 -77.831543,216.12646 -118.11725,217.14512 -153.45956,207.33255 -183.17334,179.21216 -190.72181,171.87858 -196.73604,164.10178 -202,155 c -0.36319,-0.626 -0.72639,-1.252 -1.10059,-1.89697 -15.85847,-27.97836 -19.44036,-62.334305 -11.31347,-93.338382 C -209.7887,43.154731 -201.9873,28.277128 -191,15 c 1.02674,-1.272305 1.02674,-1.272305 2.07422,-2.570312 C -167.13555,-13.267474 -133.40773,-26.714529 -100.5,-29.625 -64.866678,-31.938852 -27.5325,-23.886161 0,0 Z M -137.83594,48.992187 C -148.51593,62.15853 -154.27251,80.127488 -153,97 c 1.98917,16.65513 7.02704,30.00366 18,43 0.54141,0.65484 1.08281,1.30969 1.64063,1.98437 11.0491,12.16518 27.2425,18.80733 43.35937,20.01563 17.492399,0.17669 32.986315,-5.59555 45.65625,-17.66406 0.773438,-0.77086 1.546875,-1.54172 2.34375,-2.33594 0.711563,-0.68836 1.423125,-1.37672 2.15625,-2.08594 12.840689,-13.28517 17.520504,-31.44807 17.314453,-49.477537 C -23.23471,70.932588 -30.909419,54.411035 -45,41 -58.164715,28.960474 -73.891742,24.082224 -91.46875,24.65625 c -19.00799,1.127593 -33.82062,10.72158 -46.36719,24.335937 z"
       fill="#000000"
       transform="translate(1575,293)"
       id="path7" />
    <path
       d="m 0,0 c 19.51125,-0.061875 39.0225,-0.12375 59.125,-0.1875 9.175144,-0.040968 9.175144,-0.040968 18.535645,-0.0827637 7.581298,-0.0135498 7.581298,-0.0135498 11.152069,-0.0160675 2.44655,-0.004549 4.893094,-0.014976 7.339599,-0.0303955 34.129127,-0.20398834 67.301217,2.7460562 93.015657,27.3948517 15.14849,15.82241 20.06302,36.037599 20.08203,57.359375 6.7e-4,0.675459 0.001,1.350917 0.002,2.046844 C 209.21187,111.73597 202.00616,133.04656 184,151 c -4.86795,4.69235 -10.31378,8.36392 -16,12 6.51473,10.50813 13.14388,20.94021 19.81665,31.34863 5.13609,8.01159 10.25227,16.03557 15.35474,24.06861 2.55361,4.01786 5.11288,8.03149 7.6997,12.02807 0.42805,0.66169 0.8561,1.32339 1.29712,2.00513 1.11625,1.72235 2.2356,3.44269 3.35523,5.16284 C 217,240 217,240 217,241 c -24.09,0 -48.18,0 -73,0 -5.28,-10.23 -10.56,-20.46 -16,-31 -4.6521,-8.56573 -4.6521,-8.56573 -9.35156,-17.10547 C 115.63767,187.33038 112.82929,181.65859 110,176 c -22.77,-0.495 -22.77,-0.495 -46,-1 0,21.78 0,43.56 0,66 -21.12,0 -42.24,0 -64,0 C 0,161.47 0,81.94 0,0 Z m 64,51 c 0,24.09 0,48.18 0,73 8.20875,0.0413 16.4175,0.0825 24.875,0.125 2.571519,0.0182 5.143037,0.0364 7.79248,0.0552 2.066567,0.006 4.13314,0.0109 6.19971,0.0151 1.05002,0.0102 2.10004,0.0205 3.18188,0.031 12.11042,0.003 23.56068,-2.04345 33.12671,-10.04663 7.67322,-8.11686 10.19966,-18.475264 10.03516,-29.39844 C 148.53115,75.81818 146.22232,68.560648 140,62 c -0.51434,-0.554297 -1.02867,-1.108594 -1.55859,-1.679688 -9.35035,-9.014005 -22.15666,-9.475335 -34.40235,-9.417968 -1.01618,10e-4 -2.03237,0.002 -3.07934,0.0031 -3.778254,0.0052 -7.556488,0.01917 -11.33472,0.0321 C 76.940625,50.968437 76.940625,50.968437 64,51 Z"
       fill="#000000"
       transform="translate(588,265)"
       id="path8" />
    <path
       d="m 0,0 c 63.03,0 126.06,0 191,0 0,16.83 0,33.66 0,51 -41.91,0 -83.82,0 -127,0 0,14.52 0,29.04 0,44 37.62,0 75.24,0 114,0 0,16.83 0,33.66 0,51 -37.62,0 -75.24,0 -114,0 0,14.52 0,29.04 0,44 42.9,0 85.8,0 130,0 0,16.83 0,33.66 0,51 -64.02,0 -128.04,0 -194,0 C 0,161.47 0,81.94 0,0 Z"
       fill="#000000"
       transform="translate(2521,265)"
       id="path9" />
    <path
       d="m 0,0 c 21.12,0 42.24,0 64,0 0.03738,10.376953 0.07477,20.753906 0.113281,31.445312 0.03029,6.589857 0.06132,13.179697 0.0957,19.769532 0.05438,10.450342 0.105798,20.900635 0.137452,31.351074 0.02307,7.612753 0.05657,15.225379 0.102266,22.838032 0.02381,4.02576 0.04262,8.0514 0.04891,12.07722 0.0061,3.80039 0.02631,7.60045 0.05666,11.40071 0.01279,2.03693 0.01122,4.07392 0.009,6.11089 0.151283,15.05468 3.230763,26.78695 11.624222,39.25723 10.575172,10.34017 24.182229,14.90922 38.812499,14.75 12.52524,-1.01387 23.03728,-5.02178 32,-14 7.42275,-9.60497 11.08663,-21.29325 11.15822,-33.34018 0.01,-1.25354 0.0196,-2.50709 0.0297,-3.79861 0.006,-1.3761 0.0117,-2.7522 0.0174,-4.1283 0.01,-1.459 0.0196,-2.91799 0.03,-4.37698 0.027,-3.94992 0.048,-7.89984 0.068,-11.8498 0.0219,-4.132 0.0493,-8.26396 0.0761,-12.39593 0.0498,-7.819627 0.0948,-15.639273 0.13802,-23.458938 0.0494,-8.904468 0.10433,-17.808899 0.15968,-26.713332 C 158.79079,36.625319 158.89693,18.312674 159,0 c 21.12,0 42.24,0 64,0 0.0453,19.150857 0.0821,38.301671 0.10362,57.452568 0.0103,8.893597 0.0243,17.787159 0.0473,26.680733 0.02,7.758458 0.0329,15.51689 0.0373,23.275369 0.003,4.10185 0.009,8.20363 0.0233,12.30546 0.0138,3.87414 0.0177,7.74817 0.0148,11.62233 5.4e-4,1.40911 0.004,2.81823 0.0122,4.22732 C 223.37674,161.95521 218.08004,187.21423 201,208 c -0.60199,0.76441 -1.20398,1.52883 -1.82422,2.31641 -16.9728,20.45987 -44.40887,30.97277 -70.31201,33.47265 C 93.211487,246.41511 58.609312,240.60793 30.9375,216.75 10.037404,197.28679 1.5778372,171.9596 0,144 c -0.12576706,-4.89896 -0.12708021,-9.79423 -0.11352539,-14.69458 2.8289e-4,-1.42062 1.2215e-4,-2.84124 -4.4251e-4,-4.26186 -2.8398e-4,-3.81317 0.005548,-7.62631 0.012574,-11.43947 0.0063005,-4.00114 0.0068426,-8.00228 0.0080254,-12.00343 0.0030937,-7.557339 0.0112804,-15.114666 0.02134946,-22.672001 C -0.05869357,68.702723 -0.05334216,58.476784 -0.04751682,48.250842 -0.03814666,32.167217 -0.01821475,16.083623 0,0 Z"
       fill="#000000"
       transform="translate(2252,265)"
       id="path10" />
    <path
       d="M 0,0 C -0.64578066,4.6779305 -2.5398533,8.6428634 -4.5625,12.855469 -5.0895251,13.96974 -5.0895251,13.96974 -5.6271973,15.106522 -6.7462734,17.469352 -7.8730331,19.828424 -9,22.1875 c -0.7583173,1.598068 -1.516135,3.196373 -2.273438,4.794922 C -16.467935,37.935869 -16.467935,37.935869 -18,41 c -4.701809,-1.420639 -8.916787,-3.415966 -13.25,-5.6875 -23.026463,-11.677458 -51.072495,-21.75051 -77,-14.6875 -5.93611,2.182168 -11.38849,4.758697 -14.93359,10.1875 -2.66369,5.871949 -2.25055,12.129544 -0.12891,18.132812 5.50457,10.959996 17.72052,16.019224 28.696442,19.896912 C -88.535544,70.84266 -82.393292,72.6412 -76.25,74.4375 -55.049706,80.643635 -33.055437,87.381054 -16,102 c 0.60457,0.49758 1.209141,0.99516 1.832031,1.50781 C -5.558513,111.24272 -0.08277219,122.76021 2,134 c 0.1933594,1.0248 0.1933594,1.0248 0.390625,2.07031 2.7821971,18.08428 -1.2226982,36.24207 -11.4648438,51.375 C -22.572636,205.35194 -44.686321,215.20345 -66.481934,218.35937 -75.910717,219.55285 -85.495691,220.58316 -95,220 c -0.679014,-0.0411 -1.358027,-0.0822 -2.057617,-0.12451 C -129.73157,217.71334 -164.44312,206.53578 -189,184 c -0.99,-1.32 -1.98,-2.64 -3,-4 9.405,-18.81 9.405,-18.81 19,-38 3.99402,0 4.90271,1.38932 7.875,4 22.22534,18.61336 53.74867,32.14124 83.125,30 10.878259,-1.10418 21.440497,-3.59821 29,-12 3.591321,-5.38698 4.635459,-11.23831 3.5625,-17.58984 -2.0559,-7.76804 -5.410355,-12.2222 -12.125,-16.47266 -9.877099,-5.52458 -20.385094,-9.01184 -31.1875,-12.25 -2.561701,-0.78487 -5.122933,-1.57113 -7.68359,-2.35937 -0.95691,-0.29386 -0.95691,-0.29386 -1.93315,-0.59365 -55.7335,-17.121664 -55.7335,-17.121664 -69.05513,-41.394636 -6.83827,-14.472075 -8.40746,-33.088179 -3.67579,-48.515625 C -171.03668,14.375519 -166.10059,5.8736043 -158,-2 c 0.60199,-0.6226172 1.20398,-1.2452344 1.82422,-1.8867188 C -119.49129,-39.297996 -37.223355,-30.438339 0,0 Z"
       fill="#000000"
       transform="translate(1440,624)"
       id="path11" />
    <path
       d="m 0,0 c 15.51,0 31.02,0 47,0 0.01458,4.5061597 0.02916,9.0123193 0.04419,13.655029 0.05041,14.911828 0.116863,29.823553 0.191526,44.735278 0.04487,9.038262 0.0843,18.076484 0.110721,27.11482 0.02305,7.882656 0.05654,15.765193 0.102266,23.647743 0.02383,4.16937 0.04263,8.33862 0.04891,12.50805 0.0061,3.93417 0.02626,7.86802 0.05666,11.80206 0.0087,1.43453 0.01252,2.86911 0.01073,4.30366 -0.01384,16.263 3.039922,33.45021 14.724054,45.72164 13.612372,12.02737 30.078146,17.29868 48.179693,16.78906 C 126.15961,199.04499 141.3329,194.18469 152,182 c 2.30427,-3.20009 4.2115,-6.48863 6,-10 0.39059,-0.7657 0.78117,-1.53141 1.18359,-2.32031 5.86785,-12.33752 5.96423,-25.5934 6.02173,-39.01197 0.01,-1.42988 0.0196,-2.85976 0.03,-4.28964 0.0269,-3.85676 0.048,-7.71354 0.068,-11.57034 0.022,-4.0399 0.0493,-8.07975 0.0761,-12.11961 0.0498,-7.638909 0.0948,-15.277834 0.13802,-22.916778 0.0495,-8.701397 0.10437,-17.402758 0.15968,-26.10412 C 165.79067,35.778187 165.89685,17.889109 166,0 c 15.51,0 31.02,0 47,0 0.0453,18.57751 0.0821,37.154974 0.10362,55.732526 0.0103,8.627834 0.0242,17.255631 0.0473,25.883441 0.0201,7.528858 0.0329,15.057689 0.0373,22.586573 0.003,3.97843 0.009,7.95678 0.0233,11.93518 0.14749,41.48247 0.14749,41.48247 -4.33646,57.54978 -0.31651,1.16016 -0.31651,1.16016 -0.6394,2.34375 -6.54235,22.54422 -21.55277,41.99628 -41.89185,53.71094 -29.30833,15.82166 -66.896691,17.47466 -98.550781,8.48852 -23.36923,-7.13416 -43.828861,-21.8777 -55.836426,-43.40991 -9.2116247,-17.53453 -12.12127284,-36.25449 -12.07006839,-55.86572 2.8242e-4,-1.5184 1.2306e-4,-3.03681 -4.4251e-4,-4.55521 -2.8582e-4,-4.10271 0.005576,-8.2054 0.012574,-12.3081 0.0062693,-4.29479 0.0068402,-8.58958 0.0080254,-12.88437 0.0031028,-8.12417 0.01130198,-16.248315 0.02134949,-24.372472 0.0111338,-9.252728 0.01661979,-18.505457 0.0216354,-27.758191 C -0.03988303,38.051149 -0.02155065,19.025579 0,0 Z"
       fill="#000000"
       transform="translate(590,601)"
       id="path12" />
    <path
       d="m 0,0 c 68.31,0 136.62,0 207,0 0,17.49 0,34.98 0,53 -23.76,0 -47.52,0 -72,0 0,62.04 0,124.08 0,188 -21.12,0 -42.24,0 -64,0 C 71,178.96 71,116.92 71,53 47.57,53 24.14,53 0,53 0,35.51 0,18.02 0,0 Z"
       fill="#000000"
       transform="translate(1624,265)"
       id="path13" />
    <path
       d="m 0,0 c 104.18759,0 104.18759,0 120.3125,5.75 0.74016,0.2574902 1.48033,0.5149805 2.24292,0.7802734 23.48184,8.4631136 42.54532,25.3389466 53.25708,47.9072266 11.51644,25.349186 12.49588,54.38553 2.98975,80.50391 C 174.7111,145.43944 169.48035,154.53914 162,163 c -0.45504,0.59684 -0.91008,1.19367 -1.37891,1.80859 -10.68641,13.81259 -28.42228,22.62166 -44.74609,27.62891 -0.76192,0.23493 -1.52383,0.46986 -2.30884,0.71191 C 78.864819,202.99222 27.948694,197 0,197 0,131.99 0,66.98 0,0 Z m 39,34 c 0,42.57 0,85.14 0,129 36.897269,2.48517 36.897269,2.48517 73.1875,-6.5625 0.66508,-0.34442 1.33015,-0.68884 2.01538,-1.0437 16.03677,-8.69263 24.66807,-22.98161 29.91431,-40.02271 4.19507,-17.564385 1.0747,-37.24446 -8.00147,-52.652828 C 124.94461,45.51426 108.55565,38.190497 89,34 72.5,34 56,34 39,34 Z"
       fill="#000000"
       transform="translate(855,645)"
       id="path14" />
    <path
       d="m 0,0 c 47.52,0 95.04,0 144,0 0,11.22 0,22.44 0,34 -34.98,0 -69.96,0 -106,0 0,15.51 0,31.02 0,47 31.35,0 62.7,0 95,0 0,11.22 0,22.44 0,34 -31.35,0 -62.7,0 -95,0 0,15.84 0,31.68 0,48 35.97,0 71.94,0 109,0 0,11.22 0,22.44 0,34 -48.51,0 -97.02,0 -147,0 C 0,131.99 0,66.98 0,0 Z"
       fill="#000000"
       transform="translate(1076,645)"
       id="path15" />
    <path
       d="m 0,0 c 21.12,0 42.24,0 64,0 0,79.53 0,159.06 0,241 -21.12,0 -42.24,0 -64,0 C 0,161.47 0,81.94 0,0 Z"
       fill="#000000"
       transform="translate(1860,265)"
       id="path16" />
  </g>
</svg>
