ISO-10303-21;
HEADER;
/* Generated by software containing ST-Developer
 * from STEP Tools, Inc. (www.steptools.com) 
 */
/* OPTION: using custom renumber hook */

FILE_DESCRIPTION(
/* description */ ('STEP AP242 Edition 2',
'CAx-IF Rec.Pracs.---Representation and Presentation of Product Manufa
cturing Information (PMI)---4.0---2014-10-13',
'CAx-IF Rec.Pracs.---3D Tessellated Geometry---0.4---2014-09-14','2;1',
'CAx-IF Rec.Pracs.---User Defined Attributes---1.5---2016-08-15'),
/* implementation_level */ '2;1');

FILE_NAME(
/* name */ 'Port ethernet',
/* time_stamp */ '2026-09-13T16:09:22Z',
/* author */ (''),
/* organization */ (''),
/* preprocessor_version */ 'ST-DEVELOPER v20',
/* originating_system */ 'ONSHAPE BY PTC INC, 1.220',
/* authorisation */ '  ');

FILE_SCHEMA (('AP242_MANAGED_MODEL_BASED_3D_ENGINEERING_MIM_LF { 1 0 10303 442 3 1 4 }'));
ENDSEC;

DATA;
#10=SHAPE_REPRESENTATION_RELATIONSHIP('','',#593,#11);
#11=ADVANCED_BREP_SHAPE_REPRESENTATION('',(#591),#983);
#12=CYLINDRICAL_SURFACE('',#611,0.00023);
#13=CYLINDRICAL_SURFACE('',#614,0.00023);
#14=CYLINDRICAL_SURFACE('',#617,0.00023);
#15=CYLINDRICAL_SURFACE('',#620,0.00023);
#16=CYLINDRICAL_SURFACE('',#623,0.00023);
#17=CYLINDRICAL_SURFACE('',#626,0.00023);
#18=CYLINDRICAL_SURFACE('',#629,0.00023);
#19=CYLINDRICAL_SURFACE('',#632,0.00023);
#20=CYLINDRICAL_SURFACE('',#635,0.0016);
#21=CYLINDRICAL_SURFACE('',#638,0.0016);
#22=CIRCLE('',#601,0.0016);
#23=CIRCLE('',#602,0.0016);
#24=CIRCLE('',#603,0.00023);
#25=CIRCLE('',#604,0.00023);
#26=CIRCLE('',#605,0.00023);
#27=CIRCLE('',#606,0.00023);
#28=CIRCLE('',#607,0.00023);
#29=CIRCLE('',#608,0.00023);
#30=CIRCLE('',#609,0.00023);
#31=CIRCLE('',#610,0.00023);
#32=CIRCLE('',#612,0.00023);
#33=CIRCLE('',#615,0.00023);
#34=CIRCLE('',#618,0.00023);
#35=CIRCLE('',#621,0.00023);
#36=CIRCLE('',#624,0.00023);
#37=CIRCLE('',#627,0.00023);
#38=CIRCLE('',#630,0.00023);
#39=CIRCLE('',#633,0.00023);
#40=CIRCLE('',#636,0.0016);
#41=CIRCLE('',#639,0.0016);
#42=ORIENTED_EDGE('',*,*,#178,.F.);
#43=ORIENTED_EDGE('',*,*,#179,.F.);
#44=ORIENTED_EDGE('',*,*,#180,.T.);
#45=ORIENTED_EDGE('',*,*,#181,.T.);
#46=ORIENTED_EDGE('',*,*,#182,.T.);
#47=ORIENTED_EDGE('',*,*,#183,.T.);
#48=ORIENTED_EDGE('',*,*,#184,.T.);
#49=ORIENTED_EDGE('',*,*,#185,.T.);
#50=ORIENTED_EDGE('',*,*,#186,.T.);
#51=ORIENTED_EDGE('',*,*,#187,.T.);
#52=ORIENTED_EDGE('',*,*,#188,.T.);
#53=ORIENTED_EDGE('',*,*,#189,.T.);
#54=ORIENTED_EDGE('',*,*,#190,.T.);
#55=ORIENTED_EDGE('',*,*,#191,.T.);
#56=ORIENTED_EDGE('',*,*,#192,.T.);
#57=ORIENTED_EDGE('',*,*,#193,.T.);
#58=ORIENTED_EDGE('',*,*,#194,.F.);
#59=ORIENTED_EDGE('',*,*,#195,.F.);
#60=ORIENTED_EDGE('',*,*,#196,.T.);
#61=ORIENTED_EDGE('',*,*,#179,.T.);
#62=ORIENTED_EDGE('',*,*,#197,.T.);
#63=ORIENTED_EDGE('',*,*,#198,.F.);
#64=ORIENTED_EDGE('',*,*,#199,.F.);
#65=ORIENTED_EDGE('',*,*,#195,.T.);
#66=ORIENTED_EDGE('',*,*,#200,.T.);
#67=ORIENTED_EDGE('',*,*,#181,.F.);
#68=ORIENTED_EDGE('',*,*,#201,.F.);
#69=ORIENTED_EDGE('',*,*,#198,.T.);
#70=ORIENTED_EDGE('',*,*,#196,.F.);
#71=ORIENTED_EDGE('',*,*,#199,.T.);
#72=ORIENTED_EDGE('',*,*,#201,.T.);
#73=ORIENTED_EDGE('',*,*,#180,.F.);
#74=ORIENTED_EDGE('',*,*,#202,.F.);
#75=ORIENTED_EDGE('',*,*,#203,.F.);
#76=ORIENTED_EDGE('',*,*,#204,.F.);
#77=ORIENTED_EDGE('',*,*,#205,.F.);
#78=ORIENTED_EDGE('',*,*,#206,.F.);
#79=ORIENTED_EDGE('',*,*,#207,.F.);
#80=ORIENTED_EDGE('',*,*,#208,.F.);
#81=ORIENTED_EDGE('',*,*,#209,.F.);
#82=ORIENTED_EDGE('',*,*,#210,.F.);
#83=ORIENTED_EDGE('',*,*,#211,.F.);
#84=ORIENTED_EDGE('',*,*,#194,.T.);
#85=ORIENTED_EDGE('',*,*,#178,.T.);
#86=ORIENTED_EDGE('',*,*,#200,.F.);
#87=ORIENTED_EDGE('',*,*,#197,.F.);
#88=ORIENTED_EDGE('',*,*,#212,.F.);
#89=ORIENTED_EDGE('',*,*,#211,.T.);
#90=ORIENTED_EDGE('',*,*,#212,.T.);
#91=ORIENTED_EDGE('',*,*,#213,.F.);
#92=ORIENTED_EDGE('',*,*,#210,.T.);
#93=ORIENTED_EDGE('',*,*,#213,.T.);
#94=ORIENTED_EDGE('',*,*,#214,.F.);
#95=ORIENTED_EDGE('',*,*,#209,.T.);
#96=ORIENTED_EDGE('',*,*,#214,.T.);
#97=ORIENTED_EDGE('',*,*,#215,.F.);
#98=ORIENTED_EDGE('',*,*,#208,.T.);
#99=ORIENTED_EDGE('',*,*,#215,.T.);
#100=ORIENTED_EDGE('',*,*,#216,.F.);
#101=ORIENTED_EDGE('',*,*,#207,.T.);
#102=ORIENTED_EDGE('',*,*,#216,.T.);
#103=ORIENTED_EDGE('',*,*,#217,.F.);
#104=ORIENTED_EDGE('',*,*,#206,.T.);
#105=ORIENTED_EDGE('',*,*,#217,.T.);
#106=ORIENTED_EDGE('',*,*,#218,.F.);
#107=ORIENTED_EDGE('',*,*,#205,.T.);
#108=ORIENTED_EDGE('',*,*,#218,.T.);
#109=ORIENTED_EDGE('',*,*,#219,.F.);
#110=ORIENTED_EDGE('',*,*,#204,.T.);
#111=ORIENTED_EDGE('',*,*,#219,.T.);
#112=ORIENTED_EDGE('',*,*,#220,.F.);
#113=ORIENTED_EDGE('',*,*,#203,.T.);
#114=ORIENTED_EDGE('',*,*,#220,.T.);
#115=ORIENTED_EDGE('',*,*,#221,.F.);
#116=ORIENTED_EDGE('',*,*,#202,.T.);
#117=ORIENTED_EDGE('',*,*,#221,.T.);
#118=ORIENTED_EDGE('',*,*,#222,.T.);
#119=ORIENTED_EDGE('',*,*,#223,.T.);
#120=ORIENTED_EDGE('',*,*,#224,.T.);
#121=ORIENTED_EDGE('',*,*,#225,.T.);
#122=ORIENTED_EDGE('',*,*,#226,.T.);
#123=ORIENTED_EDGE('',*,*,#227,.T.);
#124=ORIENTED_EDGE('',*,*,#228,.T.);
#125=ORIENTED_EDGE('',*,*,#229,.T.);
#126=ORIENTED_EDGE('',*,*,#230,.T.);
#127=ORIENTED_EDGE('',*,*,#231,.T.);
#128=ORIENTED_EDGE('',*,*,#232,.T.);
#129=ORIENTED_EDGE('',*,*,#233,.T.);
#130=ORIENTED_EDGE('',*,*,#234,.T.);
#131=ORIENTED_EDGE('',*,*,#185,.F.);
#132=ORIENTED_EDGE('',*,*,#235,.F.);
#133=ORIENTED_EDGE('',*,*,#222,.F.);
#134=ORIENTED_EDGE('',*,*,#236,.T.);
#135=ORIENTED_EDGE('',*,*,#186,.F.);
#136=ORIENTED_EDGE('',*,*,#234,.F.);
#137=ORIENTED_EDGE('',*,*,#233,.F.);
#138=ORIENTED_EDGE('',*,*,#235,.T.);
#139=ORIENTED_EDGE('',*,*,#184,.F.);
#140=ORIENTED_EDGE('',*,*,#237,.F.);
#141=ORIENTED_EDGE('',*,*,#223,.F.);
#142=ORIENTED_EDGE('',*,*,#238,.T.);
#143=ORIENTED_EDGE('',*,*,#187,.F.);
#144=ORIENTED_EDGE('',*,*,#236,.F.);
#145=ORIENTED_EDGE('',*,*,#232,.F.);
#146=ORIENTED_EDGE('',*,*,#239,.T.);
#147=ORIENTED_EDGE('',*,*,#188,.F.);
#148=ORIENTED_EDGE('',*,*,#238,.F.);
#149=ORIENTED_EDGE('',*,*,#231,.F.);
#150=ORIENTED_EDGE('',*,*,#240,.T.);
#151=ORIENTED_EDGE('',*,*,#189,.F.);
#152=ORIENTED_EDGE('',*,*,#239,.F.);
#153=ORIENTED_EDGE('',*,*,#230,.F.);
#154=ORIENTED_EDGE('',*,*,#241,.T.);
#155=ORIENTED_EDGE('',*,*,#190,.F.);
#156=ORIENTED_EDGE('',*,*,#240,.F.);
#157=ORIENTED_EDGE('',*,*,#229,.F.);
#158=ORIENTED_EDGE('',*,*,#242,.T.);
#159=ORIENTED_EDGE('',*,*,#191,.F.);
#160=ORIENTED_EDGE('',*,*,#241,.F.);
#161=ORIENTED_EDGE('',*,*,#228,.F.);
#162=ORIENTED_EDGE('',*,*,#243,.T.);
#163=ORIENTED_EDGE('',*,*,#192,.F.);
#164=ORIENTED_EDGE('',*,*,#242,.F.);
#165=ORIENTED_EDGE('',*,*,#227,.F.);
#166=ORIENTED_EDGE('',*,*,#244,.T.);
#167=ORIENTED_EDGE('',*,*,#193,.F.);
#168=ORIENTED_EDGE('',*,*,#243,.F.);
#169=ORIENTED_EDGE('',*,*,#226,.F.);
#170=ORIENTED_EDGE('',*,*,#245,.T.);
#171=ORIENTED_EDGE('',*,*,#182,.F.);
#172=ORIENTED_EDGE('',*,*,#244,.F.);
#173=ORIENTED_EDGE('',*,*,#225,.F.);
#174=ORIENTED_EDGE('',*,*,#237,.T.);
#175=ORIENTED_EDGE('',*,*,#183,.F.);
#176=ORIENTED_EDGE('',*,*,#245,.F.);
#177=ORIENTED_EDGE('',*,*,#224,.F.);
#178=EDGE_CURVE('',#246,#247,#298,.T.);
#179=EDGE_CURVE('',#248,#246,#299,.T.);
#180=EDGE_CURVE('',#248,#249,#300,.T.);
#181=EDGE_CURVE('',#249,#247,#301,.T.);
#182=EDGE_CURVE('',#250,#251,#302,.T.);
#183=EDGE_CURVE('',#251,#252,#303,.T.);
#184=EDGE_CURVE('',#252,#253,#304,.T.);
#185=EDGE_CURVE('',#253,#254,#305,.T.);
#186=EDGE_CURVE('',#254,#255,#306,.T.);
#187=EDGE_CURVE('',#255,#256,#307,.T.);
#188=EDGE_CURVE('',#256,#257,#308,.T.);
#189=EDGE_CURVE('',#257,#258,#309,.T.);
#190=EDGE_CURVE('',#258,#259,#310,.T.);
#191=EDGE_CURVE('',#259,#260,#311,.T.);
#192=EDGE_CURVE('',#260,#261,#312,.T.);
#193=EDGE_CURVE('',#261,#250,#313,.T.);
#194=EDGE_CURVE('',#262,#246,#314,.T.);
#195=EDGE_CURVE('',#263,#262,#315,.T.);
#196=EDGE_CURVE('',#263,#248,#316,.T.);
#197=EDGE_CURVE('',#262,#264,#317,.T.);
#198=EDGE_CURVE('',#265,#264,#318,.T.);
#199=EDGE_CURVE('',#263,#265,#319,.T.);
#200=EDGE_CURVE('',#264,#247,#320,.T.);
#201=EDGE_CURVE('',#265,#249,#321,.T.);
#202=EDGE_CURVE('',#266,#266,#22,.F.);
#203=EDGE_CURVE('',#267,#267,#23,.F.);
#204=EDGE_CURVE('',#268,#268,#24,.T.);
#205=EDGE_CURVE('',#269,#269,#25,.T.);
#206=EDGE_CURVE('',#270,#270,#26,.T.);
#207=EDGE_CURVE('',#271,#271,#27,.T.);
#208=EDGE_CURVE('',#272,#272,#28,.T.);
#209=EDGE_CURVE('',#273,#273,#29,.T.);
#210=EDGE_CURVE('',#274,#274,#30,.T.);
#211=EDGE_CURVE('',#275,#275,#31,.T.);
#212=EDGE_CURVE('',#276,#276,#32,.T.);
#213=EDGE_CURVE('',#277,#277,#33,.T.);
#214=EDGE_CURVE('',#278,#278,#34,.T.);
#215=EDGE_CURVE('',#279,#279,#35,.T.);
#216=EDGE_CURVE('',#280,#280,#36,.T.);
#217=EDGE_CURVE('',#281,#281,#37,.T.);
#218=EDGE_CURVE('',#282,#282,#38,.T.);
#219=EDGE_CURVE('',#283,#283,#39,.T.);
#220=EDGE_CURVE('',#284,#284,#40,.T.);
#221=EDGE_CURVE('',#285,#285,#41,.T.);
#222=EDGE_CURVE('',#286,#287,#322,.T.);
#223=EDGE_CURVE('',#287,#288,#323,.T.);
#224=EDGE_CURVE('',#288,#289,#324,.T.);
#225=EDGE_CURVE('',#289,#290,#325,.T.);
#226=EDGE_CURVE('',#290,#291,#326,.T.);
#227=EDGE_CURVE('',#291,#292,#327,.T.);
#228=EDGE_CURVE('',#292,#293,#328,.T.);
#229=EDGE_CURVE('',#293,#294,#329,.T.);
#230=EDGE_CURVE('',#294,#295,#330,.T.);
#231=EDGE_CURVE('',#295,#296,#331,.T.);
#232=EDGE_CURVE('',#296,#297,#332,.T.);
#233=EDGE_CURVE('',#297,#286,#333,.T.);
#234=EDGE_CURVE('',#286,#254,#334,.T.);
#235=EDGE_CURVE('',#287,#253,#335,.T.);
#236=EDGE_CURVE('',#297,#255,#336,.T.);
#237=EDGE_CURVE('',#288,#252,#337,.T.);
#238=EDGE_CURVE('',#296,#256,#338,.T.);
#239=EDGE_CURVE('',#295,#257,#339,.T.);
#240=EDGE_CURVE('',#294,#258,#340,.T.);
#241=EDGE_CURVE('',#293,#259,#341,.T.);
#242=EDGE_CURVE('',#292,#260,#342,.T.);
#243=EDGE_CURVE('',#291,#261,#343,.T.);
#244=EDGE_CURVE('',#290,#250,#344,.T.);
#245=EDGE_CURVE('',#289,#251,#345,.T.);
#246=VERTEX_POINT('',#825);
#247=VERTEX_POINT('',#826);
#248=VERTEX_POINT('',#828);
#249=VERTEX_POINT('',#830);
#250=VERTEX_POINT('',#833);
#251=VERTEX_POINT('',#834);
#252=VERTEX_POINT('',#836);
#253=VERTEX_POINT('',#838);
#254=VERTEX_POINT('',#840);
#255=VERTEX_POINT('',#842);
#256=VERTEX_POINT('',#844);
#257=VERTEX_POINT('',#846);
#258=VERTEX_POINT('',#848);
#259=VERTEX_POINT('',#850);
#260=VERTEX_POINT('',#852);
#261=VERTEX_POINT('',#854);
#262=VERTEX_POINT('',#858);
#263=VERTEX_POINT('',#860);
#264=VERTEX_POINT('',#864);
#265=VERTEX_POINT('',#866);
#266=VERTEX_POINT('',#874);
#267=VERTEX_POINT('',#876);
#268=VERTEX_POINT('',#878);
#269=VERTEX_POINT('',#880);
#270=VERTEX_POINT('',#882);
#271=VERTEX_POINT('',#884);
#272=VERTEX_POINT('',#886);
#273=VERTEX_POINT('',#888);
#274=VERTEX_POINT('',#890);
#275=VERTEX_POINT('',#892);
#276=VERTEX_POINT('',#895);
#277=VERTEX_POINT('',#899);
#278=VERTEX_POINT('',#903);
#279=VERTEX_POINT('',#907);
#280=VERTEX_POINT('',#911);
#281=VERTEX_POINT('',#915);
#282=VERTEX_POINT('',#919);
#283=VERTEX_POINT('',#923);
#284=VERTEX_POINT('',#927);
#285=VERTEX_POINT('',#931);
#286=VERTEX_POINT('',#935);
#287=VERTEX_POINT('',#936);
#288=VERTEX_POINT('',#938);
#289=VERTEX_POINT('',#940);
#290=VERTEX_POINT('',#942);
#291=VERTEX_POINT('',#944);
#292=VERTEX_POINT('',#946);
#293=VERTEX_POINT('',#948);
#294=VERTEX_POINT('',#950);
#295=VERTEX_POINT('',#952);
#296=VERTEX_POINT('',#954);
#297=VERTEX_POINT('',#956);
#298=LINE('',#824,#346);
#299=LINE('',#827,#347);
#300=LINE('',#829,#348);
#301=LINE('',#831,#349);
#302=LINE('',#832,#350);
#303=LINE('',#835,#351);
#304=LINE('',#837,#352);
#305=LINE('',#839,#353);
#306=LINE('',#841,#354);
#307=LINE('',#843,#355);
#308=LINE('',#845,#356);
#309=LINE('',#847,#357);
#310=LINE('',#849,#358);
#311=LINE('',#851,#359);
#312=LINE('',#853,#360);
#313=LINE('',#855,#361);
#314=LINE('',#857,#362);
#315=LINE('',#859,#363);
#316=LINE('',#861,#364);
#317=LINE('',#863,#365);
#318=LINE('',#865,#366);
#319=LINE('',#867,#367);
#320=LINE('',#869,#368);
#321=LINE('',#870,#369);
#322=LINE('',#934,#370);
#323=LINE('',#937,#371);
#324=LINE('',#939,#372);
#325=LINE('',#941,#373);
#326=LINE('',#943,#374);
#327=LINE('',#945,#375);
#328=LINE('',#947,#376);
#329=LINE('',#949,#377);
#330=LINE('',#951,#378);
#331=LINE('',#953,#379);
#332=LINE('',#955,#380);
#333=LINE('',#957,#381);
#334=LINE('',#959,#382);
#335=LINE('',#960,#383);
#336=LINE('',#962,#384);
#337=LINE('',#964,#385);
#338=LINE('',#966,#386);
#339=LINE('',#968,#387);
#340=LINE('',#970,#388);
#341=LINE('',#972,#389);
#342=LINE('',#974,#390);
#343=LINE('',#976,#391);
#344=LINE('',#978,#392);
#345=LINE('',#980,#393);
#346=VECTOR('',#658,1.);
#347=VECTOR('',#659,1.);
#348=VECTOR('',#660,1.);
#349=VECTOR('',#661,1.);
#350=VECTOR('',#662,1.);
#351=VECTOR('',#663,1.);
#352=VECTOR('',#664,1.);
#353=VECTOR('',#665,1.);
#354=VECTOR('',#666,1.);
#355=VECTOR('',#667,1.);
#356=VECTOR('',#668,1.);
#357=VECTOR('',#669,1.);
#358=VECTOR('',#670,1.);
#359=VECTOR('',#671,1.);
#360=VECTOR('',#672,1.);
#361=VECTOR('',#673,1.);
#362=VECTOR('',#676,1.);
#363=VECTOR('',#677,1.);
#364=VECTOR('',#678,1.);
#365=VECTOR('',#681,1.);
#366=VECTOR('',#682,1.);
#367=VECTOR('',#683,1.);
#368=VECTOR('',#686,1.);
#369=VECTOR('',#687,1.);
#370=VECTOR('',#774,1.);
#371=VECTOR('',#775,1.);
#372=VECTOR('',#776,1.);
#373=VECTOR('',#777,1.);
#374=VECTOR('',#778,1.);
#375=VECTOR('',#779,1.);
#376=VECTOR('',#780,1.);
#377=VECTOR('',#781,1.);
#378=VECTOR('',#782,1.);
#379=VECTOR('',#783,1.);
#380=VECTOR('',#784,1.);
#381=VECTOR('',#785,1.);
#382=VECTOR('',#788,1.);
#383=VECTOR('',#789,1.);
#384=VECTOR('',#792,1.);
#385=VECTOR('',#795,1.);
#386=VECTOR('',#798,1.);
#387=VECTOR('',#801,1.);
#388=VECTOR('',#804,1.);
#389=VECTOR('',#807,1.);
#390=VECTOR('',#810,1.);
#391=VECTOR('',#813,1.);
#392=VECTOR('',#816,1.);
#393=VECTOR('',#819,1.);
#394=EDGE_LOOP('',(#42,#43,#44,#45));
#395=EDGE_LOOP('',(#46,#47,#48,#49,#50,#51,#52,#53,#54,#55,#56,#57));
#396=EDGE_LOOP('',(#58,#59,#60,#61));
#397=EDGE_LOOP('',(#62,#63,#64,#65));
#398=EDGE_LOOP('',(#66,#67,#68,#69));
#399=EDGE_LOOP('',(#70,#71,#72,#73));
#400=EDGE_LOOP('',(#74));
#401=EDGE_LOOP('',(#75));
#402=EDGE_LOOP('',(#76));
#403=EDGE_LOOP('',(#77));
#404=EDGE_LOOP('',(#78));
#405=EDGE_LOOP('',(#79));
#406=EDGE_LOOP('',(#80));
#407=EDGE_LOOP('',(#81));
#408=EDGE_LOOP('',(#82));
#409=EDGE_LOOP('',(#83));
#410=EDGE_LOOP('',(#84,#85,#86,#87));
#411=EDGE_LOOP('',(#88));
#412=EDGE_LOOP('',(#89));
#413=EDGE_LOOP('',(#90));
#414=EDGE_LOOP('',(#91));
#415=EDGE_LOOP('',(#92));
#416=EDGE_LOOP('',(#93));
#417=EDGE_LOOP('',(#94));
#418=EDGE_LOOP('',(#95));
#419=EDGE_LOOP('',(#96));
#420=EDGE_LOOP('',(#97));
#421=EDGE_LOOP('',(#98));
#422=EDGE_LOOP('',(#99));
#423=EDGE_LOOP('',(#100));
#424=EDGE_LOOP('',(#101));
#425=EDGE_LOOP('',(#102));
#426=EDGE_LOOP('',(#103));
#427=EDGE_LOOP('',(#104));
#428=EDGE_LOOP('',(#105));
#429=EDGE_LOOP('',(#106));
#430=EDGE_LOOP('',(#107));
#431=EDGE_LOOP('',(#108));
#432=EDGE_LOOP('',(#109));
#433=EDGE_LOOP('',(#110));
#434=EDGE_LOOP('',(#111));
#435=EDGE_LOOP('',(#112));
#436=EDGE_LOOP('',(#113));
#437=EDGE_LOOP('',(#114));
#438=EDGE_LOOP('',(#115));
#439=EDGE_LOOP('',(#116));
#440=EDGE_LOOP('',(#117));
#441=EDGE_LOOP('',(#118,#119,#120,#121,#122,#123,#124,#125,#126,#127,#128,
#129));
#442=EDGE_LOOP('',(#130,#131,#132,#133));
#443=EDGE_LOOP('',(#134,#135,#136,#137));
#444=EDGE_LOOP('',(#138,#139,#140,#141));
#445=EDGE_LOOP('',(#142,#143,#144,#145));
#446=EDGE_LOOP('',(#146,#147,#148,#149));
#447=EDGE_LOOP('',(#150,#151,#152,#153));
#448=EDGE_LOOP('',(#154,#155,#156,#157));
#449=EDGE_LOOP('',(#158,#159,#160,#161));
#450=EDGE_LOOP('',(#162,#163,#164,#165));
#451=EDGE_LOOP('',(#166,#167,#168,#169));
#452=EDGE_LOOP('',(#170,#171,#172,#173));
#453=EDGE_LOOP('',(#174,#175,#176,#177));
#454=FACE_BOUND('',#394,.T.);
#455=FACE_BOUND('',#395,.T.);
#456=FACE_BOUND('',#396,.T.);
#457=FACE_BOUND('',#397,.T.);
#458=FACE_BOUND('',#398,.T.);
#459=FACE_BOUND('',#399,.T.);
#460=FACE_BOUND('',#400,.T.);
#461=FACE_BOUND('',#401,.T.);
#462=FACE_BOUND('',#402,.T.);
#463=FACE_BOUND('',#403,.T.);
#464=FACE_BOUND('',#404,.T.);
#465=FACE_BOUND('',#405,.T.);
#466=FACE_BOUND('',#406,.T.);
#467=FACE_BOUND('',#407,.T.);
#468=FACE_BOUND('',#408,.T.);
#469=FACE_BOUND('',#409,.T.);
#470=FACE_BOUND('',#410,.T.);
#471=FACE_BOUND('',#411,.T.);
#472=FACE_BOUND('',#412,.T.);
#473=FACE_BOUND('',#413,.T.);
#474=FACE_BOUND('',#414,.T.);
#475=FACE_BOUND('',#415,.T.);
#476=FACE_BOUND('',#416,.T.);
#477=FACE_BOUND('',#417,.T.);
#478=FACE_BOUND('',#418,.T.);
#479=FACE_BOUND('',#419,.T.);
#480=FACE_BOUND('',#420,.T.);
#481=FACE_BOUND('',#421,.T.);
#482=FACE_BOUND('',#422,.T.);
#483=FACE_BOUND('',#423,.T.);
#484=FACE_BOUND('',#424,.T.);
#485=FACE_BOUND('',#425,.T.);
#486=FACE_BOUND('',#426,.T.);
#487=FACE_BOUND('',#427,.T.);
#488=FACE_BOUND('',#428,.T.);
#489=FACE_BOUND('',#429,.T.);
#490=FACE_BOUND('',#430,.T.);
#491=FACE_BOUND('',#431,.T.);
#492=FACE_BOUND('',#432,.T.);
#493=FACE_BOUND('',#433,.T.);
#494=FACE_BOUND('',#434,.T.);
#495=FACE_BOUND('',#435,.T.);
#496=FACE_BOUND('',#436,.T.);
#497=FACE_BOUND('',#437,.T.);
#498=FACE_BOUND('',#438,.T.);
#499=FACE_BOUND('',#439,.T.);
#500=FACE_BOUND('',#440,.T.);
#501=FACE_BOUND('',#441,.T.);
#502=FACE_BOUND('',#442,.T.);
#503=FACE_BOUND('',#443,.T.);
#504=FACE_BOUND('',#444,.T.);
#505=FACE_BOUND('',#445,.T.);
#506=FACE_BOUND('',#446,.T.);
#507=FACE_BOUND('',#447,.T.);
#508=FACE_BOUND('',#448,.T.);
#509=FACE_BOUND('',#449,.T.);
#510=FACE_BOUND('',#450,.T.);
#511=FACE_BOUND('',#451,.T.);
#512=FACE_BOUND('',#452,.T.);
#513=FACE_BOUND('',#453,.T.);
#514=PLANE('',#595);
#515=PLANE('',#596);
#516=PLANE('',#597);
#517=PLANE('',#598);
#518=PLANE('',#599);
#519=PLANE('',#600);
#520=PLANE('',#613);
#521=PLANE('',#616);
#522=PLANE('',#619);
#523=PLANE('',#622);
#524=PLANE('',#625);
#525=PLANE('',#628);
#526=PLANE('',#631);
#527=PLANE('',#634);
#528=PLANE('',#637);
#529=PLANE('',#640);
#530=PLANE('',#641);
#531=PLANE('',#642);
#532=PLANE('',#643);
#533=PLANE('',#644);
#534=PLANE('',#645);
#535=PLANE('',#646);
#536=PLANE('',#647);
#537=PLANE('',#648);
#538=PLANE('',#649);
#539=PLANE('',#650);
#540=PLANE('',#651);
#541=PLANE('',#652);
#542=PLANE('',#653);
#543=ADVANCED_FACE('',(#454,#455),#514,.T.);
#544=ADVANCED_FACE('',(#456),#515,.T.);
#545=ADVANCED_FACE('',(#457),#516,.F.);
#546=ADVANCED_FACE('',(#458),#517,.F.);
#547=ADVANCED_FACE('',(#459),#518,.T.);
#548=ADVANCED_FACE('',(#460,#461,#462,#463,#464,#465,#466,#467,#468,#469,
#470),#519,.F.);
#549=ADVANCED_FACE('',(#471,#472),#12,.T.);
#550=ADVANCED_FACE('',(#473),#520,.T.);
#551=ADVANCED_FACE('',(#474,#475),#13,.T.);
#552=ADVANCED_FACE('',(#476),#521,.T.);
#553=ADVANCED_FACE('',(#477,#478),#14,.T.);
#554=ADVANCED_FACE('',(#479),#522,.T.);
#555=ADVANCED_FACE('',(#480,#481),#15,.T.);
#556=ADVANCED_FACE('',(#482),#523,.T.);
#557=ADVANCED_FACE('',(#483,#484),#16,.T.);
#558=ADVANCED_FACE('',(#485),#524,.T.);
#559=ADVANCED_FACE('',(#486,#487),#17,.T.);
#560=ADVANCED_FACE('',(#488),#525,.T.);
#561=ADVANCED_FACE('',(#489,#490),#18,.T.);
#562=ADVANCED_FACE('',(#491),#526,.T.);
#563=ADVANCED_FACE('',(#492,#493),#19,.T.);
#564=ADVANCED_FACE('',(#494),#527,.T.);
#565=ADVANCED_FACE('',(#495,#496),#20,.T.);
#566=ADVANCED_FACE('',(#497),#528,.T.);
#567=ADVANCED_FACE('',(#498,#499),#21,.T.);
#568=ADVANCED_FACE('',(#500),#529,.T.);
#569=ADVANCED_FACE('',(#501),#530,.T.);
#570=ADVANCED_FACE('',(#502),#531,.T.);
#571=ADVANCED_FACE('',(#503),#532,.T.);
#572=ADVANCED_FACE('',(#504),#533,.T.);
#573=ADVANCED_FACE('',(#505),#534,.T.);
#574=ADVANCED_FACE('',(#506),#535,.T.);
#575=ADVANCED_FACE('',(#507),#536,.T.);
#576=ADVANCED_FACE('',(#508),#537,.T.);
#577=ADVANCED_FACE('',(#509),#538,.T.);
#578=ADVANCED_FACE('',(#510),#539,.T.);
#579=ADVANCED_FACE('',(#511),#540,.T.);
#580=ADVANCED_FACE('',(#512),#541,.T.);
#581=ADVANCED_FACE('',(#513),#542,.T.);
#582=CLOSED_SHELL('',(#543,#544,#545,#546,#547,#548,#549,#550,#551,#552,
#553,#554,#555,#556,#557,#558,#559,#560,#561,#562,#563,#564,#565,#566,#567,
#568,#569,#570,#571,#572,#573,#574,#575,#576,#577,#578,#579,#580,#581));
#583=STYLED_ITEM('',(#584),#591);
#584=PRESENTATION_STYLE_ASSIGNMENT((#585));
#585=SURFACE_STYLE_USAGE(.BOTH.,#586);
#586=SURFACE_SIDE_STYLE('',(#587));
#587=SURFACE_STYLE_FILL_AREA(#588);
#588=FILL_AREA_STYLE('',(#589));
#589=FILL_AREA_STYLE_COLOUR('',#590);
#590=COLOUR_RGB('',0.615686274509804,0.811764705882353,0.929411764705882);
#591=MANIFOLD_SOLID_BREP('Part 1',#582);
#592=SHAPE_DEFINITION_REPRESENTATION(#988,#593);
#593=SHAPE_REPRESENTATION('Part 1',(#594),#983);
#594=AXIS2_PLACEMENT_3D('',#822,#654,#655);
#595=AXIS2_PLACEMENT_3D('',#823,#656,#657);
#596=AXIS2_PLACEMENT_3D('',#856,#674,#675);
#597=AXIS2_PLACEMENT_3D('',#862,#679,#680);
#598=AXIS2_PLACEMENT_3D('',#868,#684,#685);
#599=AXIS2_PLACEMENT_3D('',#871,#688,#689);
#600=AXIS2_PLACEMENT_3D('',#872,#690,#691);
#601=AXIS2_PLACEMENT_3D('',#873,#692,#693);
#602=AXIS2_PLACEMENT_3D('',#875,#694,#695);
#603=AXIS2_PLACEMENT_3D('',#877,#696,#697);
#604=AXIS2_PLACEMENT_3D('',#879,#698,#699);
#605=AXIS2_PLACEMENT_3D('',#881,#700,#701);
#606=AXIS2_PLACEMENT_3D('',#883,#702,#703);
#607=AXIS2_PLACEMENT_3D('',#885,#704,#705);
#608=AXIS2_PLACEMENT_3D('',#887,#706,#707);
#609=AXIS2_PLACEMENT_3D('',#889,#708,#709);
#610=AXIS2_PLACEMENT_3D('',#891,#710,#711);
#611=AXIS2_PLACEMENT_3D('',#893,#712,#713);
#612=AXIS2_PLACEMENT_3D('',#894,#714,#715);
#613=AXIS2_PLACEMENT_3D('',#896,#716,#717);
#614=AXIS2_PLACEMENT_3D('',#897,#718,#719);
#615=AXIS2_PLACEMENT_3D('',#898,#720,#721);
#616=AXIS2_PLACEMENT_3D('',#900,#722,#723);
#617=AXIS2_PLACEMENT_3D('',#901,#724,#725);
#618=AXIS2_PLACEMENT_3D('',#902,#726,#727);
#619=AXIS2_PLACEMENT_3D('',#904,#728,#729);
#620=AXIS2_PLACEMENT_3D('',#905,#730,#731);
#621=AXIS2_PLACEMENT_3D('',#906,#732,#733);
#622=AXIS2_PLACEMENT_3D('',#908,#734,#735);
#623=AXIS2_PLACEMENT_3D('',#909,#736,#737);
#624=AXIS2_PLACEMENT_3D('',#910,#738,#739);
#625=AXIS2_PLACEMENT_3D('',#912,#740,#741);
#626=AXIS2_PLACEMENT_3D('',#913,#742,#743);
#627=AXIS2_PLACEMENT_3D('',#914,#744,#745);
#628=AXIS2_PLACEMENT_3D('',#916,#746,#747);
#629=AXIS2_PLACEMENT_3D('',#917,#748,#749);
#630=AXIS2_PLACEMENT_3D('',#918,#750,#751);
#631=AXIS2_PLACEMENT_3D('',#920,#752,#753);
#632=AXIS2_PLACEMENT_3D('',#921,#754,#755);
#633=AXIS2_PLACEMENT_3D('',#922,#756,#757);
#634=AXIS2_PLACEMENT_3D('',#924,#758,#759);
#635=AXIS2_PLACEMENT_3D('',#925,#760,#761);
#636=AXIS2_PLACEMENT_3D('',#926,#762,#763);
#637=AXIS2_PLACEMENT_3D('',#928,#764,#765);
#638=AXIS2_PLACEMENT_3D('',#929,#766,#767);
#639=AXIS2_PLACEMENT_3D('',#930,#768,#769);
#640=AXIS2_PLACEMENT_3D('',#932,#770,#771);
#641=AXIS2_PLACEMENT_3D('',#933,#772,#773);
#642=AXIS2_PLACEMENT_3D('',#958,#786,#787);
#643=AXIS2_PLACEMENT_3D('',#961,#790,#791);
#644=AXIS2_PLACEMENT_3D('',#963,#793,#794);
#645=AXIS2_PLACEMENT_3D('',#965,#796,#797);
#646=AXIS2_PLACEMENT_3D('',#967,#799,#800);
#647=AXIS2_PLACEMENT_3D('',#969,#802,#803);
#648=AXIS2_PLACEMENT_3D('',#971,#805,#806);
#649=AXIS2_PLACEMENT_3D('',#973,#808,#809);
#650=AXIS2_PLACEMENT_3D('',#975,#811,#812);
#651=AXIS2_PLACEMENT_3D('',#977,#814,#815);
#652=AXIS2_PLACEMENT_3D('',#979,#817,#818);
#653=AXIS2_PLACEMENT_3D('',#981,#820,#821);
#654=DIRECTION('',(0.,0.,1.));
#655=DIRECTION('',(1.,0.,0.));
#656=DIRECTION('',(0.,1.,0.));
#657=DIRECTION('',(0.,0.,1.));
#658=DIRECTION('',(1.,0.,0.));
#659=DIRECTION('',(0.,0.,-1.));
#660=DIRECTION('',(1.,0.,0.));
#661=DIRECTION('',(0.,0.,-1.));
#662=DIRECTION('',(1.,0.,-1.54886024640786E-16));
#663=DIRECTION('',(0.,0.,1.));
#664=DIRECTION('',(-1.,0.,2.87920908875819E-16));
#665=DIRECTION('',(0.,0.,-1.));
#666=DIRECTION('',(1.,0.,-3.09772049281573E-16));
#667=DIRECTION('',(0.,0.,-1.));
#668=DIRECTION('',(1.,0.,0.));
#669=DIRECTION('',(0.,0.,-1.));
#670=DIRECTION('',(1.,0.,-5.16286748802621E-17));
#671=DIRECTION('',(0.,0.,1.));
#672=DIRECTION('',(1.,0.,0.));
#673=DIRECTION('',(0.,0.,1.));
#674=DIRECTION('',(-1.,0.,0.));
#675=DIRECTION('',(0.,0.,1.));
#676=DIRECTION('',(0.,1.,0.));
#677=DIRECTION('',(0.,0.,-1.));
#678=DIRECTION('',(0.,1.,0.));
#679=DIRECTION('',(0.,1.,0.));
#680=DIRECTION('',(0.,0.,1.));
#681=DIRECTION('',(1.,0.,0.));
#682=DIRECTION('',(0.,0.,-1.));
#683=DIRECTION('',(1.,0.,0.));
#684=DIRECTION('',(-1.,0.,0.));
#685=DIRECTION('',(0.,0.,1.));
#686=DIRECTION('',(0.,1.,0.));
#687=DIRECTION('',(0.,1.,0.));
#688=DIRECTION('',(0.,0.,1.));
#689=DIRECTION('',(1.,0.,0.));
#690=DIRECTION('',(0.,0.,1.));
#691=DIRECTION('',(1.,0.,0.));
#692=DIRECTION('',(0.,0.,1.));
#693=DIRECTION('',(1.,0.,0.));
#694=DIRECTION('',(0.,0.,1.));
#695=DIRECTION('',(1.,0.,0.));
#696=DIRECTION('',(0.,0.,-1.));
#697=DIRECTION('',(-1.,0.,0.));
#698=DIRECTION('',(0.,0.,-1.));
#699=DIRECTION('',(-1.,0.,0.));
#700=DIRECTION('',(0.,0.,-1.));
#701=DIRECTION('',(-1.,0.,0.));
#702=DIRECTION('',(0.,0.,-1.));
#703=DIRECTION('',(-1.,0.,0.));
#704=DIRECTION('',(0.,0.,-1.));
#705=DIRECTION('',(-1.,0.,0.));
#706=DIRECTION('',(0.,0.,-1.));
#707=DIRECTION('',(-1.,0.,0.));
#708=DIRECTION('',(0.,0.,-1.));
#709=DIRECTION('',(-1.,0.,0.));
#710=DIRECTION('',(0.,0.,-1.));
#711=DIRECTION('',(-1.,0.,0.));
#712=DIRECTION('',(0.,0.,1.));
#713=DIRECTION('',(1.,0.,0.));
#714=DIRECTION('',(0.,0.,-1.));
#715=DIRECTION('',(-1.,0.,0.));
#716=DIRECTION('',(0.,0.,-1.));
#717=DIRECTION('',(1.,0.,0.));
#718=DIRECTION('',(0.,0.,1.));
#719=DIRECTION('',(1.,0.,0.));
#720=DIRECTION('',(0.,0.,-1.));
#721=DIRECTION('',(-1.,0.,0.));
#722=DIRECTION('',(0.,0.,-1.));
#723=DIRECTION('',(1.,0.,0.));
#724=DIRECTION('',(0.,0.,1.));
#725=DIRECTION('',(1.,0.,0.));
#726=DIRECTION('',(0.,0.,-1.));
#727=DIRECTION('',(-1.,0.,0.));
#728=DIRECTION('',(0.,0.,-1.));
#729=DIRECTION('',(1.,0.,0.));
#730=DIRECTION('',(0.,0.,1.));
#731=DIRECTION('',(1.,0.,0.));
#732=DIRECTION('',(0.,0.,-1.));
#733=DIRECTION('',(-1.,0.,0.));
#734=DIRECTION('',(0.,0.,-1.));
#735=DIRECTION('',(1.,0.,0.));
#736=DIRECTION('',(0.,0.,1.));
#737=DIRECTION('',(1.,0.,0.));
#738=DIRECTION('',(0.,0.,-1.));
#739=DIRECTION('',(-1.,0.,0.));
#740=DIRECTION('',(0.,0.,-1.));
#741=DIRECTION('',(1.,0.,0.));
#742=DIRECTION('',(0.,0.,1.));
#743=DIRECTION('',(1.,0.,0.));
#744=DIRECTION('',(0.,0.,-1.));
#745=DIRECTION('',(-1.,0.,0.));
#746=DIRECTION('',(0.,0.,-1.));
#747=DIRECTION('',(1.,0.,0.));
#748=DIRECTION('',(0.,0.,1.));
#749=DIRECTION('',(1.,0.,0.));
#750=DIRECTION('',(0.,0.,-1.));
#751=DIRECTION('',(-1.,0.,0.));
#752=DIRECTION('',(0.,0.,-1.));
#753=DIRECTION('',(1.,0.,0.));
#754=DIRECTION('',(0.,0.,1.));
#755=DIRECTION('',(1.,0.,0.));
#756=DIRECTION('',(0.,0.,-1.));
#757=DIRECTION('',(-1.,0.,0.));
#758=DIRECTION('',(0.,0.,-1.));
#759=DIRECTION('',(1.,0.,0.));
#760=DIRECTION('',(0.,0.,1.));
#761=DIRECTION('',(1.,0.,0.));
#762=DIRECTION('',(0.,0.,-1.));
#763=DIRECTION('',(-1.,0.,0.));
#764=DIRECTION('',(0.,0.,-1.));
#765=DIRECTION('',(1.,0.,0.));
#766=DIRECTION('',(0.,0.,1.));
#767=DIRECTION('',(1.,0.,0.));
#768=DIRECTION('',(0.,0.,-1.));
#769=DIRECTION('',(-1.,0.,0.));
#770=DIRECTION('',(0.,0.,-1.));
#771=DIRECTION('',(1.,0.,0.));
#772=DIRECTION('',(0.,1.,0.));
#773=DIRECTION('',(0.,0.,1.));
#774=DIRECTION('',(0.,0.,1.));
#775=DIRECTION('',(1.,0.,-2.87920908875819E-16));
#776=DIRECTION('',(0.,0.,-1.));
#777=DIRECTION('',(-1.,0.,1.54886024640786E-16));
#778=DIRECTION('',(0.,0.,-1.));
#779=DIRECTION('',(-1.,0.,0.));
#780=DIRECTION('',(0.,0.,-1.));
#781=DIRECTION('',(-1.,0.,5.16286748802621E-17));
#782=DIRECTION('',(0.,0.,1.));
#783=DIRECTION('',(-1.,0.,0.));
#784=DIRECTION('',(0.,0.,1.));
#785=DIRECTION('',(-1.,0.,3.09772049281573E-16));
#786=DIRECTION('',(1.,0.,0.));
#787=DIRECTION('',(0.,0.,-1.));
#788=DIRECTION('',(0.,1.,0.));
#789=DIRECTION('',(0.,1.,0.));
#790=DIRECTION('',(3.09772049281573E-16,0.,1.));
#791=DIRECTION('',(1.,0.,-3.09772049281573E-16));
#792=DIRECTION('',(0.,1.,0.));
#793=DIRECTION('',(-2.87920908875819E-16,0.,-1.));
#794=DIRECTION('',(-1.,0.,2.87920908875819E-16));
#795=DIRECTION('',(0.,1.,0.));
#796=DIRECTION('',(1.,0.,0.));
#797=DIRECTION('',(0.,0.,-1.));
#798=DIRECTION('',(0.,1.,0.));
#799=DIRECTION('',(0.,0.,1.));
#800=DIRECTION('',(1.,0.,0.));
#801=DIRECTION('',(0.,1.,0.));
#802=DIRECTION('',(1.,0.,0.));
#803=DIRECTION('',(0.,0.,-1.));
#804=DIRECTION('',(0.,1.,0.));
#805=DIRECTION('',(5.16286748802621E-17,0.,1.));
#806=DIRECTION('',(1.,0.,-5.16286748802621E-17));
#807=DIRECTION('',(0.,1.,0.));
#808=DIRECTION('',(-1.,0.,0.));
#809=DIRECTION('',(0.,0.,1.));
#810=DIRECTION('',(0.,1.,0.));
#811=DIRECTION('',(0.,0.,1.));
#812=DIRECTION('',(1.,0.,0.));
#813=DIRECTION('',(0.,1.,0.));
#814=DIRECTION('',(-1.,0.,0.));
#815=DIRECTION('',(0.,0.,1.));
#816=DIRECTION('',(0.,1.,0.));
#817=DIRECTION('',(1.54886024640786E-16,0.,1.));
#818=DIRECTION('',(1.,0.,-1.54886024640786E-16));
#819=DIRECTION('',(0.,1.,0.));
#820=DIRECTION('',(-1.,0.,0.));
#821=DIRECTION('',(0.,0.,1.));
#822=CARTESIAN_POINT('',(0.,0.,0.));
#823=CARTESIAN_POINT('',(0.00765,0.01774,0.0127));
#824=CARTESIAN_POINT('',(0.00765,0.01774,0.));
#825=CARTESIAN_POINT('',(-3.46944695195361E-18,0.01774,0.));
#826=CARTESIAN_POINT('',(0.0153,0.01774,0.));
#827=CARTESIAN_POINT('',(-3.46944695195361E-18,0.01774,0.0127));
#828=CARTESIAN_POINT('',(-3.46944695195361E-18,0.01774,0.0127));
#829=CARTESIAN_POINT('',(0.00765,0.01774,0.0127));
#830=CARTESIAN_POINT('',(0.0153,0.01774,0.0127));
#831=CARTESIAN_POINT('',(0.0153,0.01774,0.0127));
#832=CARTESIAN_POINT('',(0.012275,0.01774,0.00358));
#833=CARTESIAN_POINT('',(0.010875,0.01774,0.00358));
#834=CARTESIAN_POINT('',(0.013675,0.01774,0.00358));
#835=CARTESIAN_POINT('',(0.013675,0.01774,0.007005));
#836=CARTESIAN_POINT('',(0.013675,0.01774,0.01043));
#837=CARTESIAN_POINT('',(0.00765,0.01774,0.01043));
#838=CARTESIAN_POINT('',(0.001625,0.01774,0.01043));
#839=CARTESIAN_POINT('',(0.001625,0.01774,0.007005));
#840=CARTESIAN_POINT('',(0.001625,0.01774,0.00358));
#841=CARTESIAN_POINT('',(0.003025,0.01774,0.00358));
#842=CARTESIAN_POINT('',(0.004425,0.01774,0.00358));
#843=CARTESIAN_POINT('',(0.004425,0.01774,0.00269));
#844=CARTESIAN_POINT('',(0.004425,0.01774,0.0018));
#845=CARTESIAN_POINT('',(0.0049875,0.01774,0.0018));
#846=CARTESIAN_POINT('',(0.00555,0.01774,0.0018));
#847=CARTESIAN_POINT('',(0.00555,0.01774,0.00115));
#848=CARTESIAN_POINT('',(0.00555,0.01774,0.0005));
#849=CARTESIAN_POINT('',(0.00765,0.01774,0.0005));
#850=CARTESIAN_POINT('',(0.00975,0.01774,0.0005));
#851=CARTESIAN_POINT('',(0.00975,0.01774,0.00115));
#852=CARTESIAN_POINT('',(0.00975,0.01774,0.0018));
#853=CARTESIAN_POINT('',(0.0103125,0.01774,0.0018));
#854=CARTESIAN_POINT('',(0.010875,0.01774,0.0018));
#855=CARTESIAN_POINT('',(0.010875,0.01774,0.00269));
#856=CARTESIAN_POINT('',(0.,0.00887,0.0127));
#857=CARTESIAN_POINT('',(0.,0.00887,0.));
#858=CARTESIAN_POINT('',(0.,0.,0.));
#859=CARTESIAN_POINT('',(0.,0.,0.0127));
#860=CARTESIAN_POINT('',(0.,0.,0.0127));
#861=CARTESIAN_POINT('',(0.,0.00887,0.0127));
#862=CARTESIAN_POINT('',(0.00765,0.,0.0127));
#863=CARTESIAN_POINT('',(0.00765,0.,0.));
#864=CARTESIAN_POINT('',(0.0153,0.,0.));
#865=CARTESIAN_POINT('',(0.0153,0.,0.0127));
#866=CARTESIAN_POINT('',(0.0153,0.,0.0127));
#867=CARTESIAN_POINT('',(0.00765,0.,0.0127));
#868=CARTESIAN_POINT('',(0.0153,0.00887,0.0127));
#869=CARTESIAN_POINT('',(0.0153,0.00887,0.));
#870=CARTESIAN_POINT('',(0.0153,0.00887,0.0127));
#871=CARTESIAN_POINT('',(0.00765,0.00887,0.0127));
#872=CARTESIAN_POINT('',(0.00765,0.00887,0.));
#873=CARTESIAN_POINT('',(0.001935,0.01012,0.));
#874=CARTESIAN_POINT('',(0.003535,0.01012,0.));
#875=CARTESIAN_POINT('',(0.013365,0.01012,0.));
#876=CARTESIAN_POINT('',(0.014965,0.01012,0.));
#877=CARTESIAN_POINT('',(0.00384,0.00377,0.));
#878=CARTESIAN_POINT('',(0.00361,0.00377,0.));
#879=CARTESIAN_POINT('',(0.01273,0.00123,0.));
#880=CARTESIAN_POINT('',(0.0125,0.00123,0.));
#881=CARTESIAN_POINT('',(0.01019,0.00123,0.));
#882=CARTESIAN_POINT('',(0.00996,0.00123,0.));
#883=CARTESIAN_POINT('',(0.00765,0.00123,0.));
#884=CARTESIAN_POINT('',(0.00742,0.00123,0.));
#885=CARTESIAN_POINT('',(0.00638,0.00377,0.));
#886=CARTESIAN_POINT('',(0.00615,0.00377,0.));
#887=CARTESIAN_POINT('',(0.00892,0.00377,0.));
#888=CARTESIAN_POINT('',(0.00869,0.00377,0.));
#889=CARTESIAN_POINT('',(0.01146,0.00377,0.));
#890=CARTESIAN_POINT('',(0.01123,0.00377,0.));
#891=CARTESIAN_POINT('',(0.00511,0.00123,0.));
#892=CARTESIAN_POINT('',(0.00488,0.00123,0.));
#893=CARTESIAN_POINT('',(0.00511,0.00123,-0.00325));
#894=CARTESIAN_POINT('',(0.00511,0.00123,-0.00325));
#895=CARTESIAN_POINT('',(0.00488,0.00123,-0.00325));
#896=CARTESIAN_POINT('',(0.00765,0.00887,-0.00325));
#897=CARTESIAN_POINT('',(0.01146,0.00377,-0.00325));
#898=CARTESIAN_POINT('',(0.01146,0.00377,-0.00325));
#899=CARTESIAN_POINT('',(0.01123,0.00377,-0.00325));
#900=CARTESIAN_POINT('',(0.00765,0.00887,-0.00325));
#901=CARTESIAN_POINT('',(0.00892,0.00377,-0.00325));
#902=CARTESIAN_POINT('',(0.00892,0.00377,-0.00325));
#903=CARTESIAN_POINT('',(0.00869,0.00377,-0.00325));
#904=CARTESIAN_POINT('',(0.00765,0.00887,-0.00325));
#905=CARTESIAN_POINT('',(0.00638,0.00377,-0.00325));
#906=CARTESIAN_POINT('',(0.00638,0.00377,-0.00325));
#907=CARTESIAN_POINT('',(0.00615,0.00377,-0.00325));
#908=CARTESIAN_POINT('',(0.00765,0.00887,-0.00325));
#909=CARTESIAN_POINT('',(0.00765,0.00123,-0.00325));
#910=CARTESIAN_POINT('',(0.00765,0.00123,-0.00325));
#911=CARTESIAN_POINT('',(0.00742,0.00123,-0.00325));
#912=CARTESIAN_POINT('',(0.00765,0.00887,-0.00325));
#913=CARTESIAN_POINT('',(0.01019,0.00123,-0.00325));
#914=CARTESIAN_POINT('',(0.01019,0.00123,-0.00325));
#915=CARTESIAN_POINT('',(0.00996,0.00123,-0.00325));
#916=CARTESIAN_POINT('',(0.00765,0.00887,-0.00325));
#917=CARTESIAN_POINT('',(0.01273,0.00123,-0.00325));
#918=CARTESIAN_POINT('',(0.01273,0.00123,-0.00325));
#919=CARTESIAN_POINT('',(0.0125,0.00123,-0.00325));
#920=CARTESIAN_POINT('',(0.00765,0.00887,-0.00325));
#921=CARTESIAN_POINT('',(0.00384,0.00377,-0.00325));
#922=CARTESIAN_POINT('',(0.00384,0.00377,-0.00325));
#923=CARTESIAN_POINT('',(0.00361,0.00377,-0.00325));
#924=CARTESIAN_POINT('',(0.00765,0.00887,-0.00325));
#925=CARTESIAN_POINT('',(0.013365,0.01012,-0.0035));
#926=CARTESIAN_POINT('',(0.013365,0.01012,-0.0035));
#927=CARTESIAN_POINT('',(0.011765,0.01012,-0.0035));
#928=CARTESIAN_POINT('',(0.00765,0.00887,-0.0035));
#929=CARTESIAN_POINT('',(0.001935,0.01012,-0.0035));
#930=CARTESIAN_POINT('',(0.001935,0.01012,-0.0035));
#931=CARTESIAN_POINT('',(0.000335,0.01012,-0.0035));
#932=CARTESIAN_POINT('',(0.00765,0.00887,-0.0035));
#933=CARTESIAN_POINT('',(0.00765,0.003,0.0127));
#934=CARTESIAN_POINT('',(0.001625,0.003,0.007005));
#935=CARTESIAN_POINT('',(0.001625,0.003,0.00358));
#936=CARTESIAN_POINT('',(0.001625,0.003,0.01043));
#937=CARTESIAN_POINT('',(0.00765,0.003,0.01043));
#938=CARTESIAN_POINT('',(0.013675,0.003,0.01043));
#939=CARTESIAN_POINT('',(0.013675,0.003,0.007005));
#940=CARTESIAN_POINT('',(0.013675,0.003,0.00358));
#941=CARTESIAN_POINT('',(0.012275,0.003,0.00358));
#942=CARTESIAN_POINT('',(0.010875,0.003,0.00358));
#943=CARTESIAN_POINT('',(0.010875,0.003,0.00269));
#944=CARTESIAN_POINT('',(0.010875,0.003,0.0018));
#945=CARTESIAN_POINT('',(0.0103125,0.003,0.0018));
#946=CARTESIAN_POINT('',(0.00975,0.003,0.0018));
#947=CARTESIAN_POINT('',(0.00975,0.003,0.00115));
#948=CARTESIAN_POINT('',(0.00975,0.003,0.0005));
#949=CARTESIAN_POINT('',(0.00765,0.003,0.0005));
#950=CARTESIAN_POINT('',(0.00555,0.003,0.0005));
#951=CARTESIAN_POINT('',(0.00555,0.003,0.00115));
#952=CARTESIAN_POINT('',(0.00555,0.003,0.0018));
#953=CARTESIAN_POINT('',(0.0049875,0.003,0.0018));
#954=CARTESIAN_POINT('',(0.004425,0.003,0.0018));
#955=CARTESIAN_POINT('',(0.004425,0.003,0.00269));
#956=CARTESIAN_POINT('',(0.004425,0.003,0.00358));
#957=CARTESIAN_POINT('',(0.003025,0.003,0.00358));
#958=CARTESIAN_POINT('',(0.001625,-0.239077621135331,0.007005));
#959=CARTESIAN_POINT('',(0.001625,-0.239077621135331,0.00358));
#960=CARTESIAN_POINT('',(0.001625,-0.239077621135331,0.01043));
#961=CARTESIAN_POINT('',(0.003025,-0.239077621135331,0.00358));
#962=CARTESIAN_POINT('',(0.004425,-0.239077621135331,0.00358));
#963=CARTESIAN_POINT('',(0.00765,-0.239077621135331,0.01043));
#964=CARTESIAN_POINT('',(0.013675,-0.239077621135331,0.01043));
#965=CARTESIAN_POINT('',(0.004425,-0.239077621135331,0.00269));
#966=CARTESIAN_POINT('',(0.004425,-0.239077621135331,0.0018));
#967=CARTESIAN_POINT('',(0.0049875,-0.239077621135331,0.0018));
#968=CARTESIAN_POINT('',(0.00555,-0.239077621135331,0.0018));
#969=CARTESIAN_POINT('',(0.00555,-0.239077621135331,0.00115));
#970=CARTESIAN_POINT('',(0.00555,-0.239077621135331,0.0005));
#971=CARTESIAN_POINT('',(0.00765,-0.239077621135331,0.0005));
#972=CARTESIAN_POINT('',(0.00975,-0.239077621135331,0.0005));
#973=CARTESIAN_POINT('',(0.00975,-0.239077621135331,0.00115));
#974=CARTESIAN_POINT('',(0.00975,-0.239077621135331,0.0018));
#975=CARTESIAN_POINT('',(0.0103125,-0.239077621135331,0.0018));
#976=CARTESIAN_POINT('',(0.010875,-0.239077621135331,0.0018));
#977=CARTESIAN_POINT('',(0.010875,-0.239077621135331,0.00269));
#978=CARTESIAN_POINT('',(0.010875,-0.239077621135331,0.00358));
#979=CARTESIAN_POINT('',(0.012275,-0.239077621135331,0.00358));
#980=CARTESIAN_POINT('',(0.013675,-0.239077621135331,0.00358));
#981=CARTESIAN_POINT('',(0.013675,-0.239077621135331,0.007005));
#982=MECHANICAL_DESIGN_GEOMETRIC_PRESENTATION_REPRESENTATION('',(#583),
#983);
#983=(
GEOMETRIC_REPRESENTATION_CONTEXT(3)
GLOBAL_UNCERTAINTY_ASSIGNED_CONTEXT((#984))
GLOBAL_UNIT_ASSIGNED_CONTEXT((#987,#986,#985))
REPRESENTATION_CONTEXT('Part 1','TOP_LEVEL_ASSEMBLY_PART')
);
#984=UNCERTAINTY_MEASURE_WITH_UNIT(LENGTH_MEASURE(1.E-8),#987,
'DISTANCE_ACCURACY_VALUE','Maximum Tolerance applied to model');
#985=(
NAMED_UNIT(*)
SI_UNIT($,.STERADIAN.)
SOLID_ANGLE_UNIT()
);
#986=(
NAMED_UNIT(*)
PLANE_ANGLE_UNIT()
SI_UNIT($,.RADIAN.)
);
#987=(
LENGTH_UNIT()
NAMED_UNIT(*)
SI_UNIT($,.METRE.)
);
#988=PRODUCT_DEFINITION_SHAPE('','',#989);
#989=PRODUCT_DEFINITION('','',#991,#990);
#990=PRODUCT_DEFINITION_CONTEXT('',#997,'design');
#991=PRODUCT_DEFINITION_FORMATION_WITH_SPECIFIED_SOURCE('','',#993,
 .NOT_KNOWN.);
#992=PRODUCT_RELATED_PRODUCT_CATEGORY('','',(#993));
#993=PRODUCT('Part 1','Part 1','Part 1',(#995));
#994=PRODUCT_CATEGORY('','');
#995=PRODUCT_CONTEXT('',#997,'mechanical');
#996=APPLICATION_PROTOCOL_DEFINITION('international standard',
'ap242_managed_model_based_3d_engineering',2020,#997);
#997=APPLICATION_CONTEXT('managed model based 3d engineering');
ENDSEC;
END-ISO-10303-21;
